<svg width="27" height="27" viewBox="0 0 27 27" fill="none" xmlns="http://www.w3.org/2000/svg">
<g clip-path="url(#clip0_127_2697)">
<path d="M13.5799 27.1598C21.0798 27.1598 27.1598 21.0798 27.1598 13.5799C27.1598 6.07992 21.0798 0 13.5799 0C6.07992 0 0 6.07992 0 13.5799C0 21.0798 6.07992 27.1598 13.5799 27.1598Z" fill="#DE5738"/>
<path d="M15.1775 14.219L21.4083 7.9882C21.2485 7.66867 20.929 7.50891 20.4497 7.50891H6.55032C6.07103 7.50891 5.7515 7.66867 5.59174 7.9882L11.8225 14.219C12.7811 15.1775 14.3787 15.1775 15.1775 14.219Z" fill="#EEEEEE"/>
<path d="M15.9763 15.0177C15.3373 15.6568 14.3787 16.1361 13.4201 16.1361C12.4615 16.1361 11.6627 15.6568 11.0237 15.0177L5.43195 9.42603V18.213C5.43195 18.8521 5.91124 19.3314 6.55029 19.3314H20.4497C21.0887 19.3314 21.568 18.8521 21.568 18.213V9.42603L15.9763 15.0177Z" fill="#EEEEEE"/>
</g>
<defs>
<clipPath id="clip0_127_2697">
<rect width="27" height="27" fill="white"/>
</clipPath>
</defs>
</svg>
