<svg width="27" height="27" viewBox="0 0 27 27" fill="none" xmlns="http://www.w3.org/2000/svg">
<g clip-path="url(#clip0_127_2804)">
<path d="M13.5799 27.1598C21.0798 27.1598 27.1598 21.0798 27.1598 13.5799C27.1598 6.07992 21.0798 0 13.5799 0C6.07992 0 0 6.07992 0 13.5799C0 21.0798 6.07992 27.1598 13.5799 27.1598Z" fill="#DE5738"/>
<path d="M11.503 12.9409V10.864C11.503 10.3847 11.9823 9.90538 12.4616 9.90538H14.3787C14.858 9.90538 15.3373 10.3847 15.3373 10.864V12.9409H16.1361V10.864C16.1361 9.90538 15.3373 9.10657 14.3787 9.10657H12.4616C11.503 9.10657 10.7042 9.90538 10.7042 10.864V12.9409H11.503Z" fill="white"/>
<path d="M16.1361 12.4617H10.8639C10.5444 12.4617 10.2249 12.7812 10.2249 13.1007V17.4143C10.2249 17.7339 10.5444 18.0534 10.8639 18.0534H16.1361C16.4556 18.0534 16.7751 17.7339 16.7751 17.4143V13.1007C16.6154 12.7812 16.4556 12.4617 16.1361 12.4617ZM13.7396 15.1776V16.296C13.7396 16.4558 13.5799 16.6155 13.4201 16.6155C13.2604 16.6155 13.1006 16.4558 13.1006 16.296V15.1776C12.9408 15.0179 12.7811 14.8581 12.7811 14.6984C12.7811 14.3788 13.1006 14.0593 13.4201 14.0593C13.7396 14.0593 14.0592 14.3788 14.0592 14.6984C14.0592 14.8581 13.8994 15.0179 13.7396 15.1776Z" fill="white"/>
<path d="M13.4202 21.8876C8.78704 21.8876 5.11249 18.213 5.11249 13.5799C5.11249 13.2604 5.43201 12.9408 5.75154 12.9408C6.07107 12.9408 6.39059 13.2604 6.39059 13.5799C6.39059 17.574 9.58586 20.7692 13.5799 20.7692C17.574 20.7692 20.7693 17.574 20.7693 13.5799C20.7693 9.5858 17.4143 6.39053 13.4202 6.39053C13.1007 6.39053 12.9409 6.07101 12.9409 5.75148C12.9409 5.43195 13.2604 5.11243 13.5799 5.11243C18.2131 5.11243 21.8876 8.78698 21.8876 13.4201C21.8876 18.0533 18.0533 21.8876 13.4202 21.8876Z" fill="white"/>
<path d="M3.83435 13.7396L5.43198 11.0236C5.59175 10.8639 5.91127 10.8639 5.91127 11.0236L7.50891 13.7396C7.66867 13.8994 7.50891 14.2189 7.18938 14.2189H3.99411C3.99411 14.2189 3.83435 13.8994 3.83435 13.7396Z" fill="white"/>
</g>
<defs>
<clipPath id="clip0_127_2804">
<rect width="27" height="27" fill="white"/>
</clipPath>
</defs>
</svg>
