<svg width="27" height="27" viewBox="0 0 27 27" fill="none" xmlns="http://www.w3.org/2000/svg">
<path d="M13.5799 27.1598C21.0798 27.1598 27.1598 21.0798 27.1598 13.5799C27.1598 6.07992 21.0798 0 13.5799 0C6.07992 0 0 6.07992 0 13.5799C0 21.0798 6.07992 27.1598 13.5799 27.1598Z" fill="#DE5738"/>
<path d="M13.5799 12.3018C15.521 12.3018 17.0947 10.7282 17.0947 8.78701C17.0947 6.84584 15.521 5.27222 13.5799 5.27222C11.6387 5.27222 10.0651 6.84584 10.0651 8.78701C10.0651 10.7282 11.6387 12.3018 13.5799 12.3018Z" fill="#EEEEEE"/>
<path d="M19.4911 21.2485V19.4911C19.4911 16.2958 17.0946 13.2603 13.8994 13.1006C10.3846 12.9408 7.50885 15.6568 7.50885 19.0118V21.0887C7.50885 21.4083 7.82838 21.7278 8.1479 21.7278H19.0118C19.1716 21.8876 19.4911 21.568 19.4911 21.2485Z" fill="#EEEEEE"/>
</svg>
