<svg width="64" height="63" viewBox="0 0 64 63" fill="none" xmlns="http://www.w3.org/2000/svg">
<path fill-rule="evenodd" clip-rule="evenodd" d="M9.30148 29.4557C8.52109 30.2983 7.74071 31.1339 6.95341 31.9765C6.62883 32.3425 6.57358 32.8673 6.81529 33.2472C7.09844 33.703 7.74071 33.8687 8.25866 33.5856C8.95618 32.8604 9.778 32.08 10.731 31.2997C11.5667 30.6091 12.3816 30.0289 13.1413 29.5248C14.0598 28.9654 15.441 28.3162 17.1951 28.0952C18.1482 27.9778 19.5294 27.7983 21.1109 28.4336C22.3332 28.9171 23.1413 29.6698 23.5763 30.1463C23.6523 30.2016 23.749 30.2914 23.7904 30.4295C23.8802 30.7126 23.6592 31.0096 23.5971 31.0994C23.1205 31.7693 22.9824 32.6256 22.575 33.337C21.7117 34.8425 21.9672 36.5345 22.0432 37.2872C22.0915 37.7707 22.1675 38.5303 22.5542 39.4212C22.9065 40.2499 23.383 40.8577 23.6661 41.2168C24.039 41.6933 24.26 41.7486 24.4741 42.1491C24.5984 42.3839 24.7504 42.7707 24.7573 43.6684C24.7711 45.3259 24.2739 45.8093 24.6537 46.3411C24.923 46.7209 25.4962 46.9212 25.9037 46.7762C26.1592 46.6864 26.2904 46.4723 26.4355 46.2444C26.546 46.0649 26.7669 45.6574 26.8705 44.3383C26.8982 43.9792 26.9051 43.6823 26.912 43.4751C27.2573 43.5787 27.6647 43.6961 28.1274 43.8135C28.1274 43.8135 28.7835 43.9723 29.4465 44.0966C32.2158 44.6008 36.9603 44.2693 36.9603 44.2693C36.9603 44.2693 38.6799 44.145 41.1385 43.703C43.1413 43.337 43.9838 43.0469 44.1565 42.4461C44.2669 42.0662 44.1081 41.5828 43.8042 41.3342C43.3346 40.9544 42.575 41.1754 42.2918 41.2513C39.7158 41.9695 34.8954 42.377 32.1123 42.232C31.6495 42.2113 30.3098 42.1215 28.673 41.6311C27.4645 41.272 26.4493 40.9544 25.5515 40.0428C25.144 39.6146 24.5708 38.8825 24.2808 37.8535C23.6523 35.616 24.8263 33.627 25.4065 32.6463C26.8913 30.1325 29.1703 28.9447 30.6413 28.1781C31.836 27.5566 32.8857 27.1905 33.604 26.9765C33.9424 27.5911 34.3844 28.2886 34.9645 29.0137C35.4755 29.6629 35.9935 30.2016 36.4631 30.6436C35.4065 31.2582 34.4949 31.6035 33.9216 31.9834C33.3899 32.3356 32.9203 32.6947 32.5128 33.04C32.1882 33.3439 32.1053 33.8204 32.2987 34.1657C32.5335 34.587 33.1274 34.7596 33.604 34.4834C34.6813 33.848 35.952 33.1988 37.4092 32.6118C39.7228 31.6864 41.8429 31.1892 43.5832 30.9198C43.3208 30.8577 42.9479 30.761 42.4921 30.6367C41.1799 30.2776 39.854 29.9184 38.9976 29.511C36.912 28.5096 35.9175 26.3963 35.5584 25.6298C34.8471 24.1173 34.7573 22.8397 34.6261 20.9198C34.4949 19.069 34.6399 17.598 34.7366 16.859C34.9437 15.243 35.2062 13.1712 36.4424 10.9405C36.7393 10.4088 37.9065 8.3922 40.2338 6.6933C44.7918 3.35767 50.0128 3.98612 51.3802 4.15187C52.9824 4.34524 55.6136 4.66292 58.2241 6.5828C61.8982 9.28999 62.8857 13.2541 63.1274 14.2693C64.4327 19.8494 61.8636 25.1187 61.2214 26.3273C60.5308 27.6394 59.6537 28.8963 59.0252 31.203C58.4037 33.4958 58.4728 35.1809 58.4382 36.127C58.2103 42.3287 52.3125 47.5842 49.7297 49.877C46.3526 52.8811 43.1896 54.3591 40.6758 55.5055C37.7269 56.8521 33.4866 58.7375 27.796 58.8687C24.3429 58.9447 21.0487 59.0207 17.941 56.8245C14.4949 54.3867 13.4382 50.7057 13.0929 49.4212C11.3664 43.04 14.6882 37.6809 15.3512 36.6519C15.1716 36.2997 14.7573 35.616 14.1841 35.5883C13.4382 35.5469 12.8305 36.6242 12.3885 37.4115C12.1744 37.7914 12.3125 37.6256 11.7531 38.8204C11.1868 40.0289 11.0142 40.2637 10.8899 40.8646C10.7587 41.493 10.8692 41.6035 10.6965 41.8798C10.3788 42.3908 9.65369 42.5289 8.67993 42.5773C6.53905 42.6809 5.46861 42.7292 4.27386 42.087C2.33325 41.0372 1.67026 39.1173 1.40783 38.3577C0.572198 35.9336 1.23518 33.8411 1.44927 33.1988C2.02247 31.4861 3.76971 28.116 6.45618 28.1436C7.74761 28.1781 8.7559 28.9516 9.30148 29.4557Z" fill="white"/>
<path fill-rule="evenodd" clip-rule="evenodd" d="M16.3047 10.7888C16.3392 9.83576 16.3737 8.88273 16.4083 7.92969C17.313 7.92969 20.3309 8.03328 22.9829 10.257C23.7011 10.8579 25.179 12.2805 25.9525 14.5526C26.132 15.0844 26.5326 16.2929 26.4635 17.833C26.4359 18.42 26.3461 18.9725 26.1735 20.0153C25.9387 21.4449 25.8558 21.4449 25.7798 22.17C25.7039 22.833 25.5934 23.8896 25.9041 25.1327C26.0492 25.7059 26.3599 26.6244 27.0989 27.6051C26.3945 28.2405 25.6831 28.8758 24.9787 29.5112C24.661 29.1106 24.2743 28.5581 23.9083 27.8537C23.2315 26.5347 23.0174 25.3883 22.9414 24.9048C22.7273 23.5167 22.8724 22.4048 22.9967 21.5485C23.1555 20.4435 23.3005 20.3537 23.4318 19.2073C23.5215 18.4407 23.6182 17.5706 23.487 16.6037C23.4525 16.3482 23.197 14.6907 22.0574 13.2681C20.0616 10.7888 16.7605 10.7819 16.3047 10.7888Z" fill="white"/>
</svg>
