<svg width="63" height="63" viewBox="0 0 63 63" fill="none" xmlns="http://www.w3.org/2000/svg">
<path d="M52.3939 35.3683V54.7137C52.3939 55.8563 51.4698 56.7803 50.3272 56.7803H40.3713C39.2287 56.7803 38.3046 55.8563 38.3046 54.7137V44.7578C38.3046 43.6152 37.3806 42.6911 36.238 42.6911H26.2821C25.1395 42.6911 24.2154 43.6152 24.2154 44.7578V54.7137C24.2154 55.8563 23.2914 56.7803 22.1487 56.7803H12.2028C11.0602 56.7803 10.1361 55.8563 10.1361 54.7137V35.3683C10.1361 34.2257 9.21209 33.3016 8.06945 33.3016C6.23129 33.3016 5.30724 31.0759 6.60886 29.7843L29.8094 6.60361C30.6142 5.7988 31.9158 5.7988 32.7306 6.60361L55.9211 29.7942C57.2228 31.0958 56.2987 33.3115 54.4606 33.3115C53.308 33.3115 52.3939 34.2356 52.3939 35.3683ZM50.039 14.463V9.5546C50.039 8.41196 49.115 7.48791 47.9724 7.48791H45.0611C43.9185 7.48791 42.9944 8.41196 42.9944 9.5546V11.5517C42.9944 12.0982 43.213 12.6248 43.6005 13.0123L46.5217 15.9335C47.8233 17.2252 50.039 16.3011 50.039 14.463Z" fill="white"/>
</svg>
