<svg width="63" height="63" viewBox="0 0 63 63" fill="none" xmlns="http://www.w3.org/2000/svg">
<g clip-path="url(#clip0_315_5853)">
<path d="M45.577 2.97607H38.8633V7.12891H43.5006V16.4036C43.5006 23.3879 37.8181 29.0697 30.8345 29.0697H29.8655C22.8811 29.0697 17.1993 23.3872 17.1993 16.4036V7.12891H21.8367V2.97607H15.1229C13.9761 2.97607 13.0465 3.90564 13.0465 5.05249V16.4036C13.0465 25.6775 20.5916 33.2225 29.8655 33.2225H30.8345C40.1084 33.2225 47.6534 25.6775 47.6534 16.4036V5.05249C47.6534 3.90564 46.7239 2.97607 45.577 2.97607Z" fill="white"/>
<path d="M38.6565 0C37.5096 0 36.5801 0.929565 36.5801 2.07642V7.89038C36.5801 9.03723 37.5096 9.9668 38.6565 9.9668C39.8033 9.9668 40.7329 9.03723 40.7329 7.89038V2.07642C40.7329 0.929565 39.8033 0 38.6565 0Z" fill="white"/>
<path d="M22.2515 0C21.1046 0 20.175 0.929565 20.175 2.07642V7.89038C20.175 9.03723 21.1046 9.9668 22.2515 9.9668C23.3983 9.9668 24.3279 9.03723 24.3279 7.89038V2.07642C24.3279 0.929565 23.3983 0 22.2515 0Z" fill="white"/>
<path d="M32.5658 42.8445V31.0781H28.413V42.8445H21.6992C16.2798 42.8445 11.8708 47.2534 11.8708 52.6721C11.8708 58.0916 16.3109 62.5005 21.7684 62.5005H22.7374C28.1569 62.5005 32.5658 58.0916 32.5658 52.6721V46.9973H39.6256V42.8445H32.5658ZM28.413 52.6714C28.413 55.8005 25.8666 58.3469 22.7374 58.3469H21.7684C18.5472 58.3469 16.0237 55.8545 16.0237 52.6714C16.0237 49.5422 18.5701 46.9966 21.6992 46.9966H28.413V52.6714Z" fill="white"/>
<path d="M44.1235 38.4146C40.5369 38.4146 37.6182 41.3326 37.6182 44.9207C37.6182 48.5073 40.5363 51.426 44.1235 51.426C47.7109 51.426 50.6296 48.5073 50.6296 44.9207C50.6296 41.3333 47.7115 38.4146 44.1235 38.4146ZM44.1235 47.2726C42.8264 47.2726 41.771 46.217 41.771 44.92C41.771 43.6223 42.8265 42.5668 44.1235 42.5668C45.4213 42.5668 46.4768 43.6223 46.4768 44.92C46.4768 46.217 45.4213 47.2726 44.1235 47.2726Z" fill="white"/>
</g>
<defs>
<clipPath id="clip0_315_5853">
<rect width="62.5" height="62.5" fill="white"/>
</clipPath>
</defs>
</svg>
