<svg width="63" height="63" viewBox="0 0 63 63" fill="none" xmlns="http://www.w3.org/2000/svg">
<path fill-rule="evenodd" clip-rule="evenodd" d="M23.3273 23.3154L23.3432 7.1302C23.3432 5.39692 24.7559 3.99605 26.4892 4.00001L35.5434 4.03562C37.2727 4.04354 38.6697 5.44837 38.6617 7.17769L38.6024 23.3154L54.7678 23.2996C56.5011 23.2996 57.9059 24.7044 57.902 26.4377L57.8822 35.4998C57.8782 37.2291 56.4734 38.63 54.7441 38.626L38.5984 38.5904L38.5945 54.7717C38.5945 56.505 37.1857 57.9058 35.4524 57.9019L26.4496 57.8781C24.7242 57.8742 23.3273 56.4733 23.3273 54.744V38.5706L7.13813 38.6063C5.40088 38.6102 3.99605 37.2014 4.00001 35.4642C4.00792 32.4527 4.01583 29.4412 4.02375 26.4298C4.0277 24.7044 5.43254 23.3035 7.15791 23.3075C12.5477 23.3114 17.9375 23.3114 23.3273 23.3154Z" fill="white"/>
</svg>
