<svg width="63" height="63" viewBox="0 0 63 63" fill="none" xmlns="http://www.w3.org/2000/svg">
<g clip-path="url(#clip0_315_6082)">
<path d="M37.5566 30.1183C37.5566 33.6178 34.807 36.3674 31.3075 36.3674C27.808 36.3674 25.0583 33.6178 25.0583 30.1183C25.0583 26.6188 27.808 23.8691 31.3075 23.8691C34.807 23.8691 37.5566 26.7437 37.5566 30.1183Z" fill="white"/>
<path d="M15.6846 2.99707C5.68598 8.74626 0.0617676 18.6199 0.0617676 30.1183H21.9337C21.9337 26.6188 23.8085 23.6192 26.683 22.1194L15.6846 2.99707ZM46.9302 2.99707L35.8068 22.1194C38.5564 23.7441 40.5561 26.7437 40.5561 30.1183H62.428C62.553 18.6199 56.8038 8.74626 46.9302 2.99707ZM26.5581 38.2421L15.6846 57.1145C25.6832 62.8636 36.9316 62.8636 46.9302 57.1145L36.0567 38.2421C34.6819 39.117 33.0571 39.492 31.3074 39.492C29.5576 39.6169 27.9329 39.117 26.5581 38.2421Z" fill="white"/>
</g>
<defs>
<clipPath id="clip0_315_6082">
<rect width="62.5" height="58.3944" fill="white" transform="translate(0 3)"/>
</clipPath>
</defs>
</svg>
