<svg width="63" height="63" viewBox="0 0 63 63" fill="none" xmlns="http://www.w3.org/2000/svg">
<path fill-rule="evenodd" clip-rule="evenodd" d="M52.52 44.4998C48.9228 38.5362 44.5619 31.1876 38.6102 20.9581C38.6458 18.2157 38.6854 15.4733 38.721 12.7349C41.4594 12.6122 43.5647 10.3922 43.5726 7.907C43.5805 5.77008 42.0332 3.7875 39.7934 3.19786C33.9881 3.13059 28.1828 3.06727 22.3814 3C19.9398 3.4907 18.2104 5.58805 18.2104 7.86347C18.2104 10.4911 20.5136 12.8259 23.4261 12.818C23.4222 15.6158 23.4182 18.4135 23.4103 21.2153C21.2021 24.7847 17.7118 30.4555 13.4221 37.539C7.28838 47.6696 4.8507 51.892 6.50484 55.5366C7.58517 57.9189 10.0149 59.1615 11.7878 59.8184C13.07 59.8184 21.0953 59.8144 30.3988 59.8184C40.0269 59.8223 48.2817 59.8263 49.6549 59.8302C51.59 59.4187 54.4907 58.461 55.7056 56.051C57.4389 52.6082 54.744 48.184 52.52 44.4998ZM23.0462 51.3657C21.59 51.3657 20.4107 50.1864 20.4107 48.7301C20.4107 47.2738 21.59 46.0946 23.0462 46.0946C24.5025 46.0946 25.6818 47.2738 25.6818 48.7301C25.6818 50.1864 24.4985 51.3657 23.0462 51.3657ZM24.1424 43.9774C22.6861 43.9774 21.5069 42.7982 21.5069 41.3419C21.5069 39.8856 22.6861 38.7064 24.1424 38.7064C25.5987 38.7064 26.7779 39.8856 26.7779 41.3419C26.7779 42.7982 25.5987 43.9774 24.1424 43.9774ZM30.1377 48.3067C28.6814 48.3067 27.5021 47.1274 27.5021 45.6712C27.5021 44.2149 28.6814 43.0356 30.1377 43.0356C31.5939 43.0356 32.7732 44.2149 32.7732 45.6712C32.7732 47.1274 31.5939 48.3067 30.1377 48.3067ZM19.4372 34.6462C21.8116 30.4634 24.1899 26.2766 26.5642 22.0938V9.99644C25.3731 9.97665 24.182 9.95687 22.9869 9.93708C22.2231 9.61258 21.7403 8.85279 21.7839 8.04947C21.8234 7.32529 22.2825 6.6763 22.9671 6.38346C28.345 6.39137 33.7229 6.39533 39.1009 6.40324C39.8765 6.63672 40.4186 7.34507 40.4345 8.15235C40.4503 8.97546 39.92 9.71943 39.1325 9.97269C37.9295 9.97665 36.7265 9.98061 35.5235 9.98061C35.4918 13.9458 35.4562 17.907 35.4246 21.8722C37.8543 26.1262 40.2841 30.3803 42.7139 34.6343C34.9576 34.6343 27.1974 34.6383 19.4372 34.6462Z" fill="white"/>
</svg>
