<svg width="63" height="63" viewBox="0 0 63 63" fill="none" xmlns="http://www.w3.org/2000/svg">
<path fill-rule="evenodd" clip-rule="evenodd" d="M30.5541 44.553C15.3582 44.5411 7.19035 32.3171 6.64029 31.4584C7.66918 30.014 8.9276 28.435 10.4591 26.8205C12.4575 24.7152 14.4361 23.0571 16.1892 21.775C15.8212 22.8474 14.0325 28.4113 16.9609 34.1414C19.5924 39.2819 25.0099 42.5823 30.7836 42.5981C37.8632 42.6179 42.1607 37.703 42.6673 37.1015C48.2193 30.5284 45.6788 22.2775 45.5126 21.775C47.2735 23.0532 49.2799 24.7231 51.2862 26.868C52.6594 28.3321 53.7991 29.7726 54.7409 31.0983C54.266 31.862 46.0507 44.5649 30.5541 44.553ZM30.7361 12.0005C17.6415 12.0678 5.67472 19.642 0 31.4584C5.81719 43.1244 17.7642 50.5364 30.7796 50.5562C43.9019 50.572 55.9479 43.073 61.7413 31.2764C55.9716 19.4441 43.8861 11.9293 30.7361 12.0005ZM30.8113 34.3116C27.5584 34.3116 24.9229 31.589 24.9229 28.2332C24.9229 24.8775 27.5584 22.1549 30.8113 22.1549C34.0642 22.1549 36.6997 24.8775 36.6997 28.2332C36.7037 31.589 34.0642 34.3116 30.8113 34.3116Z" fill="white"/>
</svg>
