<svg width="63" height="63" viewBox="0 0 63 63" fill="none" xmlns="http://www.w3.org/2000/svg">
<g clip-path="url(#clip0_315_6069)">
<path d="M56.5172 6.40054C55.4788 5.41161 52.0176 2.19761 47.073 1.99983C41.6833 1.80204 37.5793 5.26328 35.552 6.99389C33.5742 8.67506 32.2391 10.3562 31.448 11.5429C30.5085 10.4057 29.124 8.8234 27.1956 7.29057C24.5749 5.16438 20.7181 2.09872 15.9219 1.99983C9.59274 1.90093 4.40089 6.99389 2.02747 11.5429C-0.889852 17.1304 0.0990721 22.6683 0.494642 24.5967C1.6319 30.3819 4.79646 34.1399 12.1639 41.6557C17.2075 46.7981 23.6355 53.1272 31.3985 60.0991C39.0132 53.325 45.194 47.342 49.7925 42.694C59.484 32.8543 61.264 29.8875 62.1046 26.0307C63.3902 19.7016 62.0057 11.5429 56.5172 6.40054ZM46.8752 39.9251C45.8368 39.9745 44.7984 39.3812 44.2051 38.3428C41.8811 38.3428 39.6066 38.3922 37.2826 38.3922L35.7992 35.4255C34.7609 39.3317 33.7719 43.1885 32.7336 47.0948H29.569C28.9757 39.3812 28.3823 31.6181 27.8384 23.9045C26.5528 28.7502 25.2672 33.5959 24.031 38.4417H13.054C13.054 37.5022 13.1034 36.5627 13.1034 35.5738H21.9048C23.586 28.8491 25.3166 22.075 26.9978 15.3503C27.9373 15.3503 28.9262 15.3997 29.8657 15.3997C30.5579 23.0639 31.2996 30.7281 31.9919 38.3922C33.0302 34.6343 34.0192 30.9259 35.0081 27.1679C36.3431 29.8875 37.6782 32.607 39.0132 35.376C40.7438 35.376 42.4745 35.4255 44.2051 35.4255C44.304 35.2771 45.0951 34.1399 46.4302 34.0904C47.9135 34.041 49.3969 35.2771 49.4464 36.9583C49.5947 38.4911 48.3586 39.8262 46.8752 39.9251Z" fill="white"/>
</g>
<defs>
<clipPath id="clip0_315_6069">
<rect width="62.5" height="58.0993" fill="white" transform="translate(0 2)"/>
</clipPath>
</defs>
</svg>
