<svg width="80" height="81" viewBox="0 0 80 81" fill="none" xmlns="http://www.w3.org/2000/svg">
<g clip-path="url(#clip0_587_2298)">
<rect y="0.5" width="80" height="80" rx="16" fill="#DE5738"/>
<g clip-path="url(#clip1_587_2298)">
<path fill-rule="evenodd" clip-rule="evenodd" d="M10.94 53.0063C7.71347 53.0063 5.09595 55.6239 5.09595 58.8504C5.09595 62.0769 7.71347 64.6944 10.94 64.6944C14.1665 64.6944 16.784 62.0769 16.784 58.8504C16.784 55.6239 14.1665 53.0063 10.94 53.0063Z" fill="white" fill-opacity="0.1"/>
<path fill-rule="evenodd" clip-rule="evenodd" d="M5 70.0577V73.2949V79.7265V86.1902C5 89.406 7.6282 92.0342 10.844 92.0342C14.0598 92.0342 16.688 89.406 16.688 86.1902V69.3846L31.2393 77.782C34.0171 79.3846 37.6175 78.4231 39.2201 75.6453C40.8226 72.8675 39.8611 69.2671 37.0833 67.6645L22.5427 59.2671L37.0833 50.8697C39.8611 49.2671 40.8333 45.6667 39.2201 42.8889C37.6175 40.1111 34.0171 39.1389 31.2393 40.7521L16.6987 49.1496V32.344C16.6987 29.1282 14.0598 26.5 10.8547 26.5C7.63889 26.5 5 29.1282 5 32.344V48.6581C5 49.3312 5.54487 49.8867 6.22863 49.8867C6.39957 49.8867 6.57051 49.844 6.73077 49.7799C8.04487 49.2457 9.42308 48.9252 10.844 48.9252C12.1261 48.9252 13.3868 49.1602 14.5833 49.6197L14.7222 49.6731V49.6838C15.1603 49.8654 15.5983 50.0684 16.0043 50.3141C16.4209 50.5491 16.8162 50.8269 17.2009 51.1154H17.2115L17.3291 51.2115C18.3226 52.0128 19.156 52.9957 19.797 54.0961C20.438 55.2073 20.8654 56.4145 21.0577 57.6752L21.0791 57.8248V57.8355C21.1432 58.3055 21.1752 58.7863 21.1752 59.2671C21.1752 59.7479 21.1432 60.2179 21.0791 60.6987V60.7094L21.0577 60.859C20.8654 62.1196 20.4273 63.3376 19.797 64.438C19.156 65.5491 18.3226 66.5214 17.3291 67.3226L17.2115 67.4188H17.2009C16.8269 67.7179 16.4209 67.985 16.0043 68.2201C15.5876 68.4551 15.1603 68.6688 14.7222 68.8504L14.5833 68.9038C14.2842 69.0214 13.985 69.1602 13.6859 69.2671C12.7991 69.5983 11.7842 69.5983 10.8547 69.5983C9.45513 69.5983 8.05556 69.3419 6.7735 68.7649C6.60256 68.6902 6.42094 68.6367 6.22863 68.6367C5.55556 68.6367 5.01068 69.1709 5 69.844L5 70.0577Z" fill="white" fill-opacity="0.1"/>
</g>
<path fill-rule="evenodd" clip-rule="evenodd" d="M32.3273 32.8154L32.3432 16.6302C32.3432 14.8969 33.7559 13.4961 35.4892 13.5L44.5434 13.5356C46.2727 13.5435 47.6697 14.9484 47.6617 16.6777L47.6024 32.8154L63.7678 32.7996C65.5011 32.7996 66.9059 34.2044 66.902 35.9377L66.8822 44.9998C66.8782 46.7291 65.4734 48.13 63.7441 48.126L47.5984 48.0904L47.5945 64.2717C47.5945 66.005 46.1857 67.4058 44.4524 67.4019L35.4496 67.3781C33.7242 67.3742 32.3273 65.9733 32.3273 64.244V48.0706L16.1381 48.1063C14.4009 48.1102 12.9961 46.7014 13 44.9642C13.0079 41.9527 13.0158 38.9412 13.0237 35.9298C13.0277 34.2044 14.4325 32.8035 16.1579 32.8075C21.5477 32.8114 26.9375 32.8114 32.3273 32.8154Z" fill="white"/>
</g>
<defs>
<clipPath id="clip0_587_2298">
<rect y="0.5" width="80" height="80" rx="16" fill="white"/>
</clipPath>
<clipPath id="clip1_587_2298">
<rect width="35" height="65.5235" fill="white" transform="translate(5 26.5)"/>
</clipPath>
</defs>
</svg>
