<svg width="80" height="80" viewBox="0 0 80 80" fill="none" xmlns="http://www.w3.org/2000/svg">
<g clip-path="url(#clip0_587_2305)">
<rect width="80" height="80" rx="16" fill="#DE5738"/>
<g clip-path="url(#clip1_587_2305)">
<path fill-rule="evenodd" clip-rule="evenodd" d="M10.94 52.5063C7.71347 52.5063 5.09595 55.1239 5.09595 58.3504C5.09595 61.5769 7.71347 64.1944 10.94 64.1944C14.1665 64.1944 16.784 61.5769 16.784 58.3504C16.784 55.1239 14.1665 52.5063 10.94 52.5063Z" fill="white" fill-opacity="0.1"/>
<path fill-rule="evenodd" clip-rule="evenodd" d="M5 69.5577V72.7949V79.2265V85.6902C5 88.906 7.6282 91.5342 10.844 91.5342C14.0598 91.5342 16.688 88.906 16.688 85.6902V68.8846L31.2393 77.282C34.0171 78.8846 37.6175 77.9231 39.2201 75.1453C40.8226 72.3675 39.8611 68.7671 37.0833 67.1645L22.5427 58.7671L37.0833 50.3697C39.8611 48.7671 40.8333 45.1667 39.2201 42.3889C37.6175 39.6111 34.0171 38.6389 31.2393 40.2521L16.6987 48.6496V31.844C16.6987 28.6282 14.0598 26 10.8547 26C7.63889 26 5 28.6282 5 31.844V48.1581C5 48.8312 5.54487 49.3867 6.22863 49.3867C6.39957 49.3867 6.57051 49.344 6.73077 49.2799C8.04487 48.7457 9.42308 48.4252 10.844 48.4252C12.1261 48.4252 13.3868 48.6602 14.5833 49.1197L14.7222 49.1731V49.1838C15.1603 49.3654 15.5983 49.5684 16.0043 49.8141C16.4209 50.0491 16.8162 50.3269 17.2009 50.6154H17.2115L17.3291 50.7115C18.3226 51.5128 19.156 52.4957 19.797 53.5961C20.438 54.7073 20.8654 55.9145 21.0577 57.1752L21.0791 57.3248V57.3355C21.1432 57.8055 21.1752 58.2863 21.1752 58.7671C21.1752 59.2479 21.1432 59.7179 21.0791 60.1987V60.2094L21.0577 60.359C20.8654 61.6196 20.4273 62.8376 19.797 63.938C19.156 65.0491 18.3226 66.0214 17.3291 66.8226L17.2115 66.9188H17.2009C16.8269 67.2179 16.4209 67.485 16.0043 67.7201C15.5876 67.9551 15.1603 68.1688 14.7222 68.3504L14.5833 68.4038C14.2842 68.5214 13.985 68.6602 13.6859 68.7671C12.7991 69.0983 11.7842 69.0983 10.8547 69.0983C9.45513 69.0983 8.05556 68.8419 6.7735 68.2649C6.60256 68.1902 6.42094 68.1367 6.22863 68.1367C5.55556 68.1367 5.01068 68.6709 5 69.344L5 69.5577Z" fill="white" fill-opacity="0.1"/>
</g>
<path fill-rule="evenodd" clip-rule="evenodd" d="M17.3015 37.9557C16.5211 38.7983 15.7407 39.6339 14.9534 40.4765C14.6288 40.8425 14.5736 41.3673 14.8153 41.7472C15.0984 42.203 15.7407 42.3687 16.2587 42.0856C16.9562 41.3604 17.778 40.58 18.731 39.7997C19.5667 39.1091 20.3816 38.5289 21.1413 38.0248C22.0598 37.4654 23.441 36.8162 25.1951 36.5952C26.1482 36.4778 27.5294 36.2983 29.1109 36.9336C30.3332 37.4171 31.1413 38.1698 31.5763 38.6463C31.6523 38.7016 31.749 38.7914 31.7904 38.9295C31.8802 39.2126 31.6592 39.5096 31.5971 39.5994C31.1205 40.2693 30.9824 41.1256 30.575 41.837C29.7117 43.3425 29.9672 45.0345 30.0432 45.7872C30.0915 46.2707 30.1675 47.0303 30.5542 47.9212C30.9065 48.7499 31.383 49.3577 31.6661 49.7168C32.039 50.1933 32.26 50.2486 32.4741 50.6491C32.5984 50.8839 32.7504 51.2707 32.7573 52.1684C32.7711 53.8259 32.2739 54.3093 32.6537 54.8411C32.923 55.2209 33.4962 55.4212 33.9037 55.2762C34.1592 55.1864 34.2904 54.9723 34.4355 54.7444C34.546 54.5649 34.7669 54.1574 34.8705 52.8383C34.8982 52.4792 34.9051 52.1823 34.912 51.9751C35.2573 52.0787 35.6647 52.1961 36.1274 52.3135C36.1274 52.3135 36.7835 52.4723 37.4465 52.5966C40.2158 53.1008 44.9603 52.7693 44.9603 52.7693C44.9603 52.7693 46.6799 52.645 49.1385 52.203C51.1413 51.837 51.9838 51.5469 52.1565 50.9461C52.2669 50.5662 52.1081 50.0828 51.8042 49.8342C51.3346 49.4544 50.575 49.6754 50.2918 49.7513C47.7158 50.4695 42.8954 50.877 40.1123 50.732C39.6495 50.7113 38.3098 50.6215 36.673 50.1311C35.4645 49.772 34.4493 49.4544 33.5515 48.5428C33.144 48.1146 32.5708 47.3825 32.2808 46.3535C31.6523 44.116 32.8263 42.127 33.4065 41.1463C34.8913 38.6325 37.1703 37.4447 38.6413 36.6781C39.836 36.0566 40.8857 35.6905 41.604 35.4765C41.9424 36.0911 42.3844 36.7886 42.9645 37.5137C43.4755 38.1629 43.9935 38.7016 44.4631 39.1436C43.4065 39.7582 42.4949 40.1035 41.9216 40.4834C41.3899 40.8356 40.9203 41.1947 40.5128 41.54C40.1882 41.8439 40.1053 42.3204 40.2987 42.6657C40.5335 43.087 41.1274 43.2596 41.604 42.9834C42.6813 42.348 43.952 41.6988 45.4092 41.1118C47.7228 40.1864 49.8429 39.6892 51.5832 39.4198C51.3208 39.3577 50.9479 39.261 50.4921 39.1367C49.1799 38.7776 47.854 38.4184 46.9976 38.011C44.912 37.0096 43.9175 34.8963 43.5584 34.1298C42.8471 32.6173 42.7573 31.3397 42.6261 29.4198C42.4949 27.569 42.6399 26.098 42.7366 25.359C42.9437 23.743 43.2062 21.6712 44.4424 19.4405C44.7393 18.9088 45.9065 16.8922 48.2338 15.1933C52.7918 11.8577 58.0128 12.4861 59.3802 12.6519C60.9824 12.8452 63.6136 13.1629 66.2241 15.0828C69.8982 17.79 70.8857 21.7541 71.1274 22.7693C72.4327 28.3494 69.8636 33.6187 69.2214 34.8273C68.5308 36.1394 67.6537 37.3963 67.0252 39.703C66.4037 41.9958 66.4728 43.6809 66.4382 44.627C66.2103 50.8287 60.3125 56.0842 57.7297 58.377C54.3526 61.3811 51.1896 62.8591 48.6758 64.0055C45.7269 65.3521 41.4866 67.2375 35.796 67.3687C32.3429 67.4447 29.0487 67.5207 25.941 65.3245C22.4949 62.8867 21.4382 59.2057 21.0929 57.9212C19.3664 51.54 22.6882 46.1809 23.3512 45.1519C23.1716 44.7997 22.7573 44.116 22.1841 44.0883C21.4382 44.0469 20.8305 45.1242 20.3885 45.9115C20.1744 46.2914 20.3125 46.1256 19.7531 47.3204C19.1868 48.5289 19.0142 48.7637 18.8899 49.3646C18.7587 49.993 18.8692 50.1035 18.6965 50.3798C18.3788 50.8908 17.6537 51.0289 16.6799 51.0773C14.539 51.1809 13.4686 51.2292 12.2739 50.587C10.3332 49.5372 9.67026 47.6173 9.40783 46.8577C8.5722 44.4336 9.23518 42.3411 9.44927 41.6988C10.0225 39.9861 11.7697 36.616 14.4562 36.6436C15.7476 36.6781 16.7559 37.4516 17.3015 37.9557Z" fill="white"/>
<path fill-rule="evenodd" clip-rule="evenodd" d="M24.3047 19.2888C24.3392 18.3358 24.3737 17.3827 24.4083 16.4297C25.313 16.4297 28.3309 16.5333 30.9829 18.757C31.7011 19.3579 33.179 20.7805 33.9525 23.0526C34.132 23.5844 34.5326 24.7929 34.4635 26.333C34.4359 26.92 34.3461 27.4725 34.1735 28.5153C33.9387 29.9449 33.8558 29.9449 33.7798 30.67C33.7039 31.333 33.5934 32.3896 33.9041 33.6327C34.0492 34.2059 34.3599 35.1244 35.0989 36.1051C34.3945 36.7405 33.6831 37.3758 32.9787 38.0112C32.661 37.6106 32.2743 37.0581 31.9083 36.3537C31.2315 35.0347 31.0174 33.8883 30.9414 33.4048C30.7273 32.0167 30.8724 30.9048 30.9967 30.0485C31.1555 28.9435 31.3005 28.8537 31.4318 27.7073C31.5215 26.9407 31.6182 26.0706 31.487 25.1037C31.4525 24.8482 31.197 23.1907 30.0574 21.7681C28.0616 19.2888 24.7605 19.2819 24.3047 19.2888Z" fill="white"/>
</g>
<defs>
<clipPath id="clip0_587_2305">
<rect width="80" height="80" rx="16" fill="white"/>
</clipPath>
<clipPath id="clip1_587_2305">
<rect width="35" height="65.5235" fill="white" transform="translate(5 26)"/>
</clipPath>
</defs>
</svg>
