<svg width="80" height="80" viewBox="0 0 80 80" fill="none" xmlns="http://www.w3.org/2000/svg">
<g clip-path="url(#clip0_587_2548)">
<rect width="80" height="80" rx="16" fill="#DE5738"/>
<g clip-path="url(#clip1_587_2548)">
<path fill-rule="evenodd" clip-rule="evenodd" d="M10.94 52.5063C7.71347 52.5063 5.09595 55.1239 5.09595 58.3504C5.09595 61.5769 7.71347 64.1944 10.94 64.1944C14.1665 64.1944 16.784 61.5769 16.784 58.3504C16.784 55.1239 14.1665 52.5063 10.94 52.5063Z" fill="white" fill-opacity="0.1"/>
<path fill-rule="evenodd" clip-rule="evenodd" d="M5 69.5577V72.7949V79.2265V85.6902C5 88.906 7.6282 91.5342 10.844 91.5342C14.0598 91.5342 16.688 88.906 16.688 85.6902V68.8846L31.2393 77.282C34.0171 78.8846 37.6175 77.9231 39.2201 75.1453C40.8226 72.3675 39.8611 68.7671 37.0833 67.1645L22.5427 58.7671L37.0833 50.3697C39.8611 48.7671 40.8333 45.1667 39.2201 42.3889C37.6175 39.6111 34.0171 38.6389 31.2393 40.2521L16.6987 48.6496V31.844C16.6987 28.6282 14.0598 26 10.8547 26C7.63889 26 5 28.6282 5 31.844V48.1581C5 48.8312 5.54487 49.3867 6.22863 49.3867C6.39957 49.3867 6.57051 49.344 6.73077 49.2799C8.04487 48.7457 9.42308 48.4252 10.844 48.4252C12.1261 48.4252 13.3868 48.6602 14.5833 49.1197L14.7222 49.1731V49.1838C15.1603 49.3654 15.5983 49.5684 16.0043 49.8141C16.4209 50.0491 16.8162 50.3269 17.2009 50.6154H17.2115L17.3291 50.7115C18.3226 51.5128 19.156 52.4957 19.797 53.5961C20.438 54.7073 20.8654 55.9145 21.0577 57.1752L21.0791 57.3248V57.3355C21.1432 57.8055 21.1752 58.2863 21.1752 58.7671C21.1752 59.2479 21.1432 59.7179 21.0791 60.1987V60.2094L21.0577 60.359C20.8654 61.6196 20.4273 62.8376 19.797 63.938C19.156 65.0491 18.3226 66.0214 17.3291 66.8226L17.2115 66.9188H17.2009C16.8269 67.2179 16.4209 67.485 16.0043 67.7201C15.5876 67.9551 15.1603 68.1688 14.7222 68.3504L14.5833 68.4038C14.2842 68.5214 13.985 68.6602 13.6859 68.7671C12.7991 69.0983 11.7842 69.0983 10.8547 69.0983C9.45513 69.0983 8.05556 68.8419 6.7735 68.2649C6.60256 68.1902 6.42094 68.1367 6.22863 68.1367C5.55556 68.1367 5.01068 68.6709 5 69.344L5 69.5577Z" fill="white" fill-opacity="0.1"/>
</g>
<g clip-path="url(#clip2_587_2548)">
<path d="M54.5769 11.9761H47.8632V16.1289H52.5005V25.4036C52.5005 32.3879 46.818 38.0697 39.8344 38.0697H38.8654C31.881 38.0697 26.1992 32.3872 26.1992 25.4036V16.1289H30.8365V11.9761H24.1228C22.976 11.9761 22.0464 12.9056 22.0464 14.0525V25.4036C22.0464 34.6775 29.5914 42.2225 38.8654 42.2225H39.8344C49.1083 42.2225 56.6533 34.6775 56.6533 25.4036V14.0525C56.6533 12.9056 55.7238 11.9761 54.5769 11.9761Z" fill="white"/>
<path d="M47.6565 9C46.5096 9 45.5801 9.92957 45.5801 11.0764V16.8904C45.5801 18.0372 46.5096 18.9668 47.6565 18.9668C48.8033 18.9668 49.7329 18.0372 49.7329 16.8904V11.0764C49.7329 9.92957 48.8033 9 47.6565 9Z" fill="white"/>
<path d="M31.2515 9C30.1046 9 29.175 9.92957 29.175 11.0764V16.8904C29.175 18.0372 30.1046 18.9668 31.2515 18.9668C32.3983 18.9668 33.3279 18.0372 33.3279 16.8904V11.0764C33.3279 9.92957 32.3983 9 31.2515 9Z" fill="white"/>
<path d="M41.5658 51.8445V40.0781H37.413V51.8445H30.6992C25.2798 51.8445 20.8708 56.2534 20.8708 61.6721C20.8708 67.0916 25.3109 71.5005 30.7684 71.5005H31.7374C37.1569 71.5005 41.5658 67.0916 41.5658 61.6721V55.9973H48.6256V51.8445H41.5658ZM37.413 61.6714C37.413 64.8005 34.8666 67.3469 31.7374 67.3469H30.7684C27.5472 67.3469 25.0237 64.8545 25.0237 61.6714C25.0237 58.5422 27.5701 55.9966 30.6992 55.9966H37.413V61.6714Z" fill="white"/>
<path d="M53.1235 47.4146C49.5369 47.4146 46.6182 50.3326 46.6182 53.9207C46.6182 57.5073 49.5363 60.426 53.1235 60.426C56.7109 60.426 59.6296 57.5073 59.6296 53.9207C59.6296 50.3333 56.7115 47.4146 53.1235 47.4146ZM53.1235 56.2726C51.8264 56.2726 50.771 55.217 50.771 53.92C50.771 52.6223 51.8265 51.5668 53.1235 51.5668C54.4213 51.5668 55.4768 52.6223 55.4768 53.92C55.4768 55.217 54.4213 56.2726 53.1235 56.2726Z" fill="white"/>
</g>
</g>
<defs>
<clipPath id="clip0_587_2548">
<rect width="80" height="80" rx="16" fill="white"/>
</clipPath>
<clipPath id="clip1_587_2548">
<rect width="35" height="65.5235" fill="white" transform="translate(5 26)"/>
</clipPath>
<clipPath id="clip2_587_2548">
<rect width="62.5" height="62.5" fill="white" transform="translate(9 9)"/>
</clipPath>
</defs>
</svg>
