<svg width="80" height="80" viewBox="0 0 80 80" fill="none" xmlns="http://www.w3.org/2000/svg">
<g clip-path="url(#clip0_587_251)">
<rect width="80" height="80" rx="16" fill="#018992"/>
<g clip-path="url(#clip1_587_251)">
<path fill-rule="evenodd" clip-rule="evenodd" d="M10.94 52.5063C7.71347 52.5063 5.09595 55.1239 5.09595 58.3504C5.09595 61.5769 7.71347 64.1944 10.94 64.1944C14.1665 64.1944 16.784 61.5769 16.784 58.3504C16.784 55.1239 14.1665 52.5063 10.94 52.5063Z" fill="white" fill-opacity="0.1"/>
<path fill-rule="evenodd" clip-rule="evenodd" d="M5 69.5577V72.7949V79.2265V85.6902C5 88.906 7.6282 91.5342 10.844 91.5342C14.0598 91.5342 16.688 88.906 16.688 85.6902V68.8846L31.2393 77.282C34.0171 78.8846 37.6175 77.9231 39.2201 75.1453C40.8226 72.3675 39.8611 68.7671 37.0833 67.1645L22.5427 58.7671L37.0833 50.3697C39.8611 48.7671 40.8333 45.1667 39.2201 42.3889C37.6175 39.6111 34.0171 38.6389 31.2393 40.2521L16.6987 48.6496V31.844C16.6987 28.6282 14.0598 26 10.8547 26C7.63889 26 5 28.6282 5 31.844V48.1581C5 48.8312 5.54487 49.3867 6.22863 49.3867C6.39957 49.3867 6.57051 49.344 6.73077 49.2799C8.04487 48.7457 9.42308 48.4252 10.844 48.4252C12.1261 48.4252 13.3868 48.6603 14.5833 49.1197L14.7222 49.1731V49.1838C15.1603 49.3654 15.5983 49.5684 16.0043 49.8141C16.4209 50.0491 16.8162 50.3269 17.2009 50.6154H17.2115L17.3291 50.7115C18.3226 51.5128 19.156 52.4957 19.797 53.5962C20.438 54.7073 20.8654 55.9145 21.0577 57.1752L21.0791 57.3248V57.3355C21.1432 57.8056 21.1752 58.2863 21.1752 58.7671C21.1752 59.2479 21.1432 59.7179 21.0791 60.1987V60.2094L21.0577 60.359C20.8654 61.6197 20.4273 62.8376 19.797 63.938C19.156 65.0491 18.3226 66.0214 17.3291 66.8226L17.2115 66.9188H17.2009C16.8269 67.2179 16.4209 67.485 16.0043 67.7201C15.5876 67.9551 15.1603 68.1688 14.7222 68.3504L14.5833 68.4038C14.2842 68.5214 13.985 68.6603 13.6859 68.7671C12.7991 69.0983 11.7842 69.0983 10.8547 69.0983C9.45513 69.0983 8.05556 68.8419 6.7735 68.265C6.60256 68.1902 6.42094 68.1367 6.22863 68.1367C5.55556 68.1367 5.01068 68.6709 5 69.344L5 69.5577Z" fill="white" fill-opacity="0.1"/>
</g>
<path fill-rule="evenodd" clip-rule="evenodd" d="M32.3273 32.3154L32.3432 16.1302C32.3432 14.3969 33.7559 12.9961 35.4892 13L44.5434 13.0356C46.2727 13.0435 47.6697 14.4484 47.6617 16.1777L47.6024 32.3154L63.7678 32.2996C65.5011 32.2996 66.9059 33.7044 66.902 35.4377L66.8822 44.4998C66.8782 46.2291 65.4734 47.63 63.7441 47.626L47.5984 47.5904L47.5945 63.7717C47.5945 65.505 46.1857 66.9058 44.4524 66.9019L35.4496 66.8781C33.7242 66.8742 32.3273 65.4733 32.3273 63.744V47.5706L16.1381 47.6063C14.4009 47.6102 12.9961 46.2014 13 44.4642C13.0079 41.4527 13.0158 38.4412 13.0237 35.4298C13.0277 33.7044 14.4325 32.3035 16.1579 32.3075C21.5477 32.3114 26.9375 32.3114 32.3273 32.3154Z" fill="white"/>
</g>
<defs>
<clipPath id="clip0_587_251">
<rect width="80" height="80" rx="16" fill="white"/>
</clipPath>
<clipPath id="clip1_587_251">
<rect width="35" height="65.5235" fill="white" transform="translate(5 26)"/>
</clipPath>
</defs>
</svg>
