<svg width="80" height="80" viewBox="0 0 80 80" fill="none" xmlns="http://www.w3.org/2000/svg">
<g clip-path="url(#clip0_587_2458)">
<rect width="80" height="80" rx="16" fill="#018992"/>
<g clip-path="url(#clip1_587_2458)">
<path fill-rule="evenodd" clip-rule="evenodd" d="M10.94 52.5063C7.71347 52.5063 5.09595 55.1239 5.09595 58.3504C5.09595 61.5769 7.71347 64.1944 10.94 64.1944C14.1665 64.1944 16.784 61.5769 16.784 58.3504C16.784 55.1239 14.1665 52.5063 10.94 52.5063Z" fill="white" fill-opacity="0.1"/>
<path fill-rule="evenodd" clip-rule="evenodd" d="M5 69.5577V72.7949V79.2265V85.6902C5 88.906 7.6282 91.5342 10.844 91.5342C14.0598 91.5342 16.688 88.906 16.688 85.6902V68.8846L31.2393 77.282C34.0171 78.8846 37.6175 77.9231 39.2201 75.1453C40.8226 72.3675 39.8611 68.7671 37.0833 67.1645L22.5427 58.7671L37.0833 50.3697C39.8611 48.7671 40.8333 45.1667 39.2201 42.3889C37.6175 39.6111 34.0171 38.6389 31.2393 40.2521L16.6987 48.6496V31.844C16.6987 28.6282 14.0598 26 10.8547 26C7.63889 26 5 28.6282 5 31.844V48.1581C5 48.8312 5.54487 49.3867 6.22863 49.3867C6.39957 49.3867 6.57051 49.344 6.73077 49.2799C8.04487 48.7457 9.42308 48.4252 10.844 48.4252C12.1261 48.4252 13.3868 48.6603 14.5833 49.1197L14.7222 49.1731V49.1838C15.1603 49.3654 15.5983 49.5684 16.0043 49.8141C16.4209 50.0491 16.8162 50.3269 17.2009 50.6154H17.2115L17.3291 50.7115C18.3226 51.5128 19.156 52.4957 19.797 53.5962C20.438 54.7073 20.8654 55.9145 21.0577 57.1752L21.0791 57.3248V57.3355C21.1432 57.8056 21.1752 58.2863 21.1752 58.7671C21.1752 59.2479 21.1432 59.7179 21.0791 60.1987V60.2094L21.0577 60.359C20.8654 61.6197 20.4273 62.8376 19.797 63.938C19.156 65.0491 18.3226 66.0214 17.3291 66.8226L17.2115 66.9188H17.2009C16.8269 67.2179 16.4209 67.485 16.0043 67.7201C15.5876 67.9551 15.1603 68.1688 14.7222 68.3504L14.5833 68.4038C14.2842 68.5214 13.985 68.6603 13.6859 68.7671C12.7991 69.0983 11.7842 69.0983 10.8547 69.0983C9.45513 69.0983 8.05556 68.8419 6.7735 68.265C6.60256 68.1902 6.42094 68.1367 6.22863 68.1367C5.55556 68.1367 5.01068 68.6709 5 69.344L5 69.5577Z" fill="white" fill-opacity="0.1"/>
</g>
<g clip-path="url(#clip2_587_2458)">
<path d="M46.5566 38.6183C46.5566 42.1178 43.807 44.8674 40.3075 44.8674C36.808 44.8674 34.0583 42.1178 34.0583 38.6183C34.0583 35.1188 36.808 32.3691 40.3075 32.3691C43.807 32.3691 46.5566 35.2437 46.5566 38.6183Z" fill="white"/>
<path d="M24.6846 11.4971C14.686 17.2463 9.06177 27.1199 9.06177 38.6183H30.9337C30.9337 35.1188 32.8085 32.1192 35.683 30.6194L24.6846 11.4971ZM55.9302 11.4971L44.8068 30.6194C47.5564 32.2441 49.5561 35.2437 49.5561 38.6183H71.428C71.553 27.1199 65.8038 17.2463 55.9302 11.4971ZM35.5581 46.7421L24.6846 65.6145C34.6832 71.3636 45.9316 71.3636 55.9302 65.6145L45.0567 46.7421C43.6819 47.617 42.0571 47.992 40.3074 47.992C38.5576 48.1169 36.9329 47.617 35.5581 46.7421Z" fill="white"/>
</g>
</g>
<defs>
<clipPath id="clip0_587_2458">
<rect width="80" height="80" rx="16" fill="white"/>
</clipPath>
<clipPath id="clip1_587_2458">
<rect width="35" height="65.5235" fill="white" transform="translate(5 26)"/>
</clipPath>
<clipPath id="clip2_587_2458">
<rect width="62.5" height="58.3944" fill="white" transform="translate(9 11.5)"/>
</clipPath>
</defs>
</svg>
