<svg width="80" height="80" viewBox="0 0 80 80" fill="none" xmlns="http://www.w3.org/2000/svg">
<g clip-path="url(#clip0_587_2471)">
<rect width="80" height="80" rx="16" fill="#018992"/>
<g clip-path="url(#clip1_587_2471)">
<path fill-rule="evenodd" clip-rule="evenodd" d="M10.94 52.5063C7.71347 52.5063 5.09595 55.1239 5.09595 58.3504C5.09595 61.5769 7.71347 64.1944 10.94 64.1944C14.1665 64.1944 16.784 61.5769 16.784 58.3504C16.784 55.1239 14.1665 52.5063 10.94 52.5063Z" fill="white" fill-opacity="0.1"/>
<path fill-rule="evenodd" clip-rule="evenodd" d="M5 69.5577V72.7949V79.2265V85.6902C5 88.906 7.6282 91.5342 10.844 91.5342C14.0598 91.5342 16.688 88.906 16.688 85.6902V68.8846L31.2393 77.282C34.0171 78.8846 37.6175 77.9231 39.2201 75.1453C40.8226 72.3675 39.8611 68.7671 37.0833 67.1645L22.5427 58.7671L37.0833 50.3697C39.8611 48.7671 40.8333 45.1667 39.2201 42.3889C37.6175 39.6111 34.0171 38.6389 31.2393 40.2521L16.6987 48.6496V31.844C16.6987 28.6282 14.0598 26 10.8547 26C7.63889 26 5 28.6282 5 31.844V48.1581C5 48.8312 5.54487 49.3867 6.22863 49.3867C6.39957 49.3867 6.57051 49.344 6.73077 49.2799C8.04487 48.7457 9.42308 48.4252 10.844 48.4252C12.1261 48.4252 13.3868 48.6603 14.5833 49.1197L14.7222 49.1731V49.1838C15.1603 49.3654 15.5983 49.5684 16.0043 49.8141C16.4209 50.0491 16.8162 50.3269 17.2009 50.6154H17.2115L17.3291 50.7115C18.3226 51.5128 19.156 52.4957 19.797 53.5962C20.438 54.7073 20.8654 55.9145 21.0577 57.1752L21.0791 57.3248V57.3355C21.1432 57.8056 21.1752 58.2863 21.1752 58.7671C21.1752 59.2479 21.1432 59.7179 21.0791 60.1987V60.2094L21.0577 60.359C20.8654 61.6197 20.4273 62.8376 19.797 63.938C19.156 65.0491 18.3226 66.0214 17.3291 66.8226L17.2115 66.9188H17.2009C16.8269 67.2179 16.4209 67.485 16.0043 67.7201C15.5876 67.9551 15.1603 68.1688 14.7222 68.3504L14.5833 68.4038C14.2842 68.5214 13.985 68.6603 13.6859 68.7671C12.7991 69.0983 11.7842 69.0983 10.8547 69.0983C9.45513 69.0983 8.05556 68.8419 6.7735 68.265C6.60256 68.1902 6.42094 68.1367 6.22863 68.1367C5.55556 68.1367 5.01068 68.6709 5 69.344L5 69.5577Z" fill="white" fill-opacity="0.1"/>
</g>
<path fill-rule="evenodd" clip-rule="evenodd" d="M61.52 52.9998C57.9228 47.0362 53.5619 39.6876 47.6102 29.4581C47.6458 26.7157 47.6854 23.9733 47.721 21.2349C50.4594 21.1122 52.5647 18.8922 52.5726 16.407C52.5805 14.2701 51.0332 12.2875 48.7934 11.6979C42.9881 11.6306 37.1828 11.5673 31.3814 11.5C28.9398 11.9907 27.2104 14.088 27.2104 16.3635C27.2104 18.9911 29.5136 21.3259 32.4261 21.318C32.4222 24.1158 32.4182 26.9135 32.4103 29.7153C30.2021 33.2847 26.7118 38.9555 22.4221 46.039C16.2884 56.1696 13.8507 60.392 15.5048 64.0366C16.5852 66.4189 19.0149 67.6615 20.7878 68.3184C22.07 68.3184 30.0953 68.3144 39.3988 68.3184C49.0269 68.3223 57.2817 68.3263 58.6549 68.3302C60.59 67.9187 63.4907 66.961 64.7056 64.551C66.4389 61.1082 63.744 56.684 61.52 52.9998ZM32.0462 59.8657C30.59 59.8657 29.4107 58.6864 29.4107 57.2301C29.4107 55.7738 30.59 54.5946 32.0462 54.5946C33.5025 54.5946 34.6818 55.7738 34.6818 57.2301C34.6818 58.6864 33.4985 59.8657 32.0462 59.8657ZM33.1424 52.4774C31.6861 52.4774 30.5069 51.2982 30.5069 49.8419C30.5069 48.3856 31.6861 47.2064 33.1424 47.2064C34.5987 47.2064 35.7779 48.3856 35.7779 49.8419C35.7779 51.2982 34.5987 52.4774 33.1424 52.4774ZM39.1377 56.8067C37.6814 56.8067 36.5021 55.6274 36.5021 54.1712C36.5021 52.7149 37.6814 51.5356 39.1377 51.5356C40.5939 51.5356 41.7732 52.7149 41.7732 54.1712C41.7732 55.6274 40.5939 56.8067 39.1377 56.8067ZM28.4372 43.1462C30.8116 38.9634 33.1899 34.7766 35.5642 30.5938V18.4964C34.3731 18.4767 33.182 18.4569 31.9869 18.4371C31.2231 18.1126 30.7403 17.3528 30.7839 16.5495C30.8234 15.8253 31.2825 15.1763 31.9671 14.8835C37.345 14.8914 42.7229 14.8953 48.1009 14.9032C48.8765 15.1367 49.4186 15.8451 49.4345 16.6524C49.4503 17.4755 48.92 18.2194 48.1325 18.4727C46.9295 18.4767 45.7265 18.4806 44.5235 18.4806C44.4918 22.4458 44.4562 26.407 44.4246 30.3722C46.8543 34.6262 49.2841 38.8803 51.7139 43.1343C43.9576 43.1343 36.1974 43.1383 28.4372 43.1462Z" fill="white"/>
</g>
<defs>
<clipPath id="clip0_587_2471">
<rect width="80" height="80" rx="16" fill="white"/>
</clipPath>
<clipPath id="clip1_587_2471">
<rect width="35" height="65.5235" fill="white" transform="translate(5 26)"/>
</clipPath>
</defs>
</svg>
