<svg width="80" height="80" viewBox="0 0 80 80" fill="none" xmlns="http://www.w3.org/2000/svg">
<g clip-path="url(#clip0_587_2936)">
<rect width="80" height="80" rx="16" fill="#DE5738"/>
<g clip-path="url(#clip1_587_2936)">
<path fill-rule="evenodd" clip-rule="evenodd" d="M10.94 52.5063C7.71347 52.5063 5.09595 55.1239 5.09595 58.3504C5.09595 61.5769 7.71347 64.1944 10.94 64.1944C14.1665 64.1944 16.784 61.5769 16.784 58.3504C16.784 55.1239 14.1665 52.5063 10.94 52.5063Z" fill="white" fill-opacity="0.1"/>
<path fill-rule="evenodd" clip-rule="evenodd" d="M5 69.5577V72.7949V79.2265V85.6902C5 88.906 7.6282 91.5342 10.844 91.5342C14.0598 91.5342 16.688 88.906 16.688 85.6902V68.8846L31.2393 77.282C34.0171 78.8846 37.6175 77.9231 39.2201 75.1453C40.8226 72.3675 39.8611 68.7671 37.0833 67.1645L22.5427 58.7671L37.0833 50.3697C39.8611 48.7671 40.8333 45.1667 39.2201 42.3889C37.6175 39.6111 34.0171 38.6389 31.2393 40.2521L16.6987 48.6496V31.844C16.6987 28.6282 14.0598 26 10.8547 26C7.63889 26 5 28.6282 5 31.844V48.1581C5 48.8312 5.54487 49.3867 6.22863 49.3867C6.39957 49.3867 6.57051 49.344 6.73077 49.2799C8.04487 48.7457 9.42308 48.4252 10.844 48.4252C12.1261 48.4252 13.3868 48.6602 14.5833 49.1197L14.7222 49.1731V49.1838C15.1603 49.3654 15.5983 49.5684 16.0043 49.8141C16.4209 50.0491 16.8162 50.3269 17.2009 50.6154H17.2115L17.3291 50.7115C18.3226 51.5128 19.156 52.4957 19.797 53.5961C20.438 54.7073 20.8654 55.9145 21.0577 57.1752L21.0791 57.3248V57.3355C21.1432 57.8055 21.1752 58.2863 21.1752 58.7671C21.1752 59.2479 21.1432 59.7179 21.0791 60.1987V60.2094L21.0577 60.359C20.8654 61.6196 20.4273 62.8376 19.797 63.938C19.156 65.0491 18.3226 66.0214 17.3291 66.8226L17.2115 66.9188H17.2009C16.8269 67.2179 16.4209 67.485 16.0043 67.7201C15.5876 67.9551 15.1603 68.1688 14.7222 68.3504L14.5833 68.4038C14.2842 68.5214 13.985 68.6602 13.6859 68.7671C12.7991 69.0983 11.7842 69.0983 10.8547 69.0983C9.45513 69.0983 8.05556 68.8419 6.7735 68.2649C6.60256 68.1902 6.42094 68.1367 6.22863 68.1367C5.55556 68.1367 5.01068 68.6709 5 69.344L5 69.5577Z" fill="white" fill-opacity="0.1"/>
</g>
<path fill-rule="evenodd" clip-rule="evenodd" d="M39.5541 53.553C24.3582 53.5411 16.1904 41.3171 15.6403 40.4584C16.6692 39.014 17.9276 37.435 19.4591 35.8205C21.4575 33.7152 23.4361 32.0571 25.1892 30.775C24.8212 31.8474 23.0325 37.4113 25.9609 43.1414C28.5924 48.2819 34.0099 51.5823 39.7836 51.5981C46.8632 51.6179 51.1607 46.703 51.6673 46.1015C57.2193 39.5284 54.6788 31.2775 54.5126 30.775C56.2735 32.0532 58.2799 33.7231 60.2862 35.868C61.6594 37.3321 62.7991 38.7726 63.7409 40.0983C63.266 40.862 55.0507 53.5649 39.5541 53.553ZM39.7361 21.0005C26.6415 21.0678 14.6747 28.642 9 40.4584C14.8172 52.1244 26.7642 59.5364 39.7796 59.5562C52.9019 59.572 64.9479 52.073 70.7413 40.2764C64.9716 28.4441 52.8861 20.9293 39.7361 21.0005ZM39.8113 43.3116C36.5584 43.3116 33.9229 40.589 33.9229 37.2332C33.9229 33.8775 36.5584 31.1549 39.8113 31.1549C43.0642 31.1549 45.6997 33.8775 45.6997 37.2332C45.7037 40.589 43.0642 43.3116 39.8113 43.3116Z" fill="white"/>
</g>
<defs>
<clipPath id="clip0_587_2936">
<rect width="80" height="80" rx="16" fill="white"/>
</clipPath>
<clipPath id="clip1_587_2936">
<rect width="35" height="65.5235" fill="white" transform="translate(5 26)"/>
</clipPath>
</defs>
</svg>
