<svg width="80" height="80" viewBox="0 0 80 80" fill="none" xmlns="http://www.w3.org/2000/svg">
<g clip-path="url(#clip0_587_2996)">
<rect width="80" height="80" rx="16" fill="#018992"/>
<g clip-path="url(#clip1_587_2996)">
<path fill-rule="evenodd" clip-rule="evenodd" d="M10.94 52.5063C7.71347 52.5063 5.09595 55.1239 5.09595 58.3504C5.09595 61.5769 7.71347 64.1944 10.94 64.1944C14.1665 64.1944 16.784 61.5769 16.784 58.3504C16.784 55.1239 14.1665 52.5063 10.94 52.5063Z" fill="white" fill-opacity="0.1"/>
<path fill-rule="evenodd" clip-rule="evenodd" d="M5 69.5577V72.7949V79.2265V85.6902C5 88.906 7.6282 91.5342 10.844 91.5342C14.0598 91.5342 16.688 88.906 16.688 85.6902V68.8846L31.2393 77.282C34.0171 78.8846 37.6175 77.9231 39.2201 75.1453C40.8226 72.3675 39.8611 68.7671 37.0833 67.1645L22.5427 58.7671L37.0833 50.3697C39.8611 48.7671 40.8333 45.1667 39.2201 42.3889C37.6175 39.6111 34.0171 38.6389 31.2393 40.2521L16.6987 48.6496V31.844C16.6987 28.6282 14.0598 26 10.8547 26C7.63889 26 5 28.6282 5 31.844V48.1581C5 48.8312 5.54487 49.3867 6.22863 49.3867C6.39957 49.3867 6.57051 49.344 6.73077 49.2799C8.04487 48.7457 9.42308 48.4252 10.844 48.4252C12.1261 48.4252 13.3868 48.6603 14.5833 49.1197L14.7222 49.1731V49.1838C15.1603 49.3654 15.5983 49.5684 16.0043 49.8141C16.4209 50.0491 16.8162 50.3269 17.2009 50.6154H17.2115L17.3291 50.7115C18.3226 51.5128 19.156 52.4957 19.797 53.5962C20.438 54.7073 20.8654 55.9145 21.0577 57.1752L21.0791 57.3248V57.3355C21.1432 57.8056 21.1752 58.2863 21.1752 58.7671C21.1752 59.2479 21.1432 59.7179 21.0791 60.1987V60.2094L21.0577 60.359C20.8654 61.6197 20.4273 62.8376 19.797 63.938C19.156 65.0491 18.3226 66.0214 17.3291 66.8226L17.2115 66.9188H17.2009C16.8269 67.2179 16.4209 67.485 16.0043 67.7201C15.5876 67.9551 15.1603 68.1688 14.7222 68.3504L14.5833 68.4038C14.2842 68.5214 13.985 68.6603 13.6859 68.7671C12.7991 69.0983 11.7842 69.0983 10.8547 69.0983C9.45513 69.0983 8.05556 68.8419 6.7735 68.265C6.60256 68.1902 6.42094 68.1367 6.22863 68.1367C5.55556 68.1367 5.01068 68.6709 5 69.344L5 69.5577Z" fill="white" fill-opacity="0.1"/>
</g>
<g clip-path="url(#clip2_587_2996)">
<path d="M65.5172 15.4005C64.4788 14.4116 61.0176 11.1976 56.073 10.9998C50.6833 10.802 46.5793 14.2633 44.552 15.9939C42.5742 17.6751 41.2391 19.3562 40.448 20.5429C39.5085 19.4057 38.124 17.8234 36.1956 16.2906C33.5749 14.1644 29.7181 11.0987 24.9219 10.9998C18.5927 10.9009 13.4009 15.9939 11.0275 20.5429C8.11015 26.1304 9.09907 31.6683 9.49464 33.5967C10.6319 39.3819 13.7965 43.1399 21.1639 50.6557C26.2075 55.7981 32.6355 62.1272 40.3985 69.0991C48.0132 62.325 54.194 56.342 58.7925 51.694C68.484 41.8543 70.264 38.8875 71.1046 35.0307C72.3902 28.7016 71.0057 20.5429 65.5172 15.4005ZM55.8752 48.9251C54.8368 48.9745 53.7984 48.3812 53.2051 47.3428C50.8811 47.3428 48.6066 47.3922 46.2826 47.3922L44.7992 44.4255C43.7609 48.3317 42.7719 52.1885 41.7336 56.0948H38.569C37.9757 48.3812 37.3823 40.6181 36.8384 32.9045C35.5528 37.7502 34.2672 42.5959 33.031 47.4417H22.054C22.054 46.5022 22.1034 45.5627 22.1034 44.5738H30.9048C32.586 37.8491 34.3166 31.075 35.9978 24.3503C36.9373 24.3503 37.9262 24.3997 38.8657 24.3997C39.5579 32.0639 40.2996 39.7281 40.9919 47.3922C42.0302 43.6343 43.0192 39.9259 44.0081 36.1679C45.3431 38.8875 46.6782 41.607 48.0132 44.376C49.7438 44.376 51.4745 44.4255 53.2051 44.4255C53.304 44.2771 54.0951 43.1399 55.4302 43.0904C56.9135 43.041 58.3969 44.2771 58.4464 45.9583C58.5947 47.4911 57.3586 48.8262 55.8752 48.9251Z" fill="white"/>
</g>
</g>
<defs>
<clipPath id="clip0_587_2996">
<rect width="80" height="80" rx="16" fill="white"/>
</clipPath>
<clipPath id="clip1_587_2996">
<rect width="35" height="65.5235" fill="white" transform="translate(5 26)"/>
</clipPath>
<clipPath id="clip2_587_2996">
<rect width="62.5" height="58.0993" fill="white" transform="translate(9 11)"/>
</clipPath>
</defs>
</svg>
