<svg width="80" height="81" viewBox="0 0 80 81" fill="none" xmlns="http://www.w3.org/2000/svg">
<g clip-path="url(#clip0_587_2291)">
<rect y="0.5" width="80" height="80" rx="16" fill="#018992"/>
<g clip-path="url(#clip1_587_2291)">
<path fill-rule="evenodd" clip-rule="evenodd" d="M10.94 53.0063C7.71347 53.0063 5.09595 55.6239 5.09595 58.8504C5.09595 62.0769 7.71347 64.6944 10.94 64.6944C14.1665 64.6944 16.784 62.0769 16.784 58.8504C16.784 55.6239 14.1665 53.0063 10.94 53.0063Z" fill="white" fill-opacity="0.1"/>
<path fill-rule="evenodd" clip-rule="evenodd" d="M5 70.0577V73.2949V79.7265V86.1902C5 89.406 7.6282 92.0342 10.844 92.0342C14.0598 92.0342 16.688 89.406 16.688 86.1902V69.3846L31.2393 77.782C34.0171 79.3846 37.6175 78.4231 39.2201 75.6453C40.8226 72.8675 39.8611 69.2671 37.0833 67.6645L22.5427 59.2671L37.0833 50.8697C39.8611 49.2671 40.8333 45.6667 39.2201 42.8889C37.6175 40.1111 34.0171 39.1389 31.2393 40.7521L16.6987 49.1496V32.344C16.6987 29.1282 14.0598 26.5 10.8547 26.5C7.63889 26.5 5 29.1282 5 32.344V48.6581C5 49.3312 5.54487 49.8867 6.22863 49.8867C6.39957 49.8867 6.57051 49.844 6.73077 49.7799C8.04487 49.2457 9.42308 48.9252 10.844 48.9252C12.1261 48.9252 13.3868 49.1602 14.5833 49.6197L14.7222 49.6731V49.6838C15.1603 49.8654 15.5983 50.0684 16.0043 50.3141C16.4209 50.5491 16.8162 50.8269 17.2009 51.1154H17.2115L17.3291 51.2115C18.3226 52.0128 19.156 52.9957 19.797 54.0961C20.438 55.2073 20.8654 56.4145 21.0577 57.6752L21.0791 57.8248V57.8355C21.1432 58.3055 21.1752 58.7863 21.1752 59.2671C21.1752 59.7479 21.1432 60.2179 21.0791 60.6987V60.7094L21.0577 60.859C20.8654 62.1196 20.4273 63.3376 19.797 64.438C19.156 65.5491 18.3226 66.5214 17.3291 67.3226L17.2115 67.4188H17.2009C16.8269 67.7179 16.4209 67.985 16.0043 68.2201C15.5876 68.4551 15.1603 68.6688 14.7222 68.8504L14.5833 68.9038C14.2842 69.0214 13.985 69.1602 13.6859 69.2671C12.7991 69.5983 11.7842 69.5983 10.8547 69.5983C9.45513 69.5983 8.05556 69.3419 6.7735 68.7649C6.60256 68.6902 6.42094 68.6367 6.22863 68.6367C5.55556 68.6367 5.01068 69.1709 5 69.844L5 70.0577Z" fill="white" fill-opacity="0.1"/>
</g>
<path d="M61.3939 44.8683V64.2137C61.3939 65.3563 60.4698 66.2803 59.3272 66.2803H49.3713C48.2287 66.2803 47.3046 65.3563 47.3046 64.2137V54.2578C47.3046 53.1152 46.3806 52.1911 45.238 52.1911H35.2821C34.1395 52.1911 33.2154 53.1152 33.2154 54.2578V64.2137C33.2154 65.3563 32.2914 66.2803 31.1487 66.2803H21.2028C20.0602 66.2803 19.1361 65.3563 19.1361 64.2137V44.8683C19.1361 43.7257 18.2121 42.8016 17.0694 42.8016C15.2313 42.8016 14.3072 40.5759 15.6089 39.2843L38.8094 16.1036C39.6142 15.2988 40.9158 15.2988 41.7306 16.1036L64.9211 39.2942C66.2228 40.5958 65.2987 42.8115 63.4606 42.8115C62.308 42.8115 61.3939 43.7356 61.3939 44.8683ZM59.039 23.963V19.0546C59.039 17.912 58.115 16.9879 56.9724 16.9879H54.0611C52.9185 16.9879 51.9944 17.912 51.9944 19.0546V21.0517C51.9944 21.5982 52.213 22.1248 52.6005 22.5123L55.5217 25.4335C56.8233 26.7252 59.039 25.8011 59.039 23.963Z" fill="white"/>
</g>
<defs>
<clipPath id="clip0_587_2291">
<rect y="0.5" width="80" height="80" rx="16" fill="white"/>
</clipPath>
<clipPath id="clip1_587_2291">
<rect width="35" height="65.5235" fill="white" transform="translate(5 26.5)"/>
</clipPath>
</defs>
</svg>
