<svg width="80" height="80" viewBox="0 0 80 80" fill="none" xmlns="http://www.w3.org/2000/svg">
<g clip-path="url(#clip0_587_160)">
<rect width="80" height="80" rx="16" fill="#018992"/>
<g clip-path="url(#clip1_587_160)">
<path fill-rule="evenodd" clip-rule="evenodd" d="M10.94 52.5063C7.71347 52.5063 5.09595 55.1239 5.09595 58.3504C5.09595 61.5769 7.71347 64.1944 10.94 64.1944C14.1665 64.1944 16.784 61.5769 16.784 58.3504C16.784 55.1239 14.1665 52.5063 10.94 52.5063Z" fill="white" fill-opacity="0.1"/>
<path fill-rule="evenodd" clip-rule="evenodd" d="M5 69.5577V72.7949V79.2265V85.6902C5 88.906 7.6282 91.5342 10.844 91.5342C14.0598 91.5342 16.688 88.906 16.688 85.6902V68.8846L31.2393 77.282C34.0171 78.8846 37.6175 77.9231 39.2201 75.1453C40.8226 72.3675 39.8611 68.7671 37.0833 67.1645L22.5427 58.7671L37.0833 50.3697C39.8611 48.7671 40.8333 45.1667 39.2201 42.3889C37.6175 39.6111 34.0171 38.6389 31.2393 40.2521L16.6987 48.6496V31.844C16.6987 28.6282 14.0598 26 10.8547 26C7.63889 26 5 28.6282 5 31.844V48.1581C5 48.8312 5.54487 49.3867 6.22863 49.3867C6.39957 49.3867 6.57051 49.344 6.73077 49.2799C8.04487 48.7457 9.42308 48.4252 10.844 48.4252C12.1261 48.4252 13.3868 48.6603 14.5833 49.1197L14.7222 49.1731V49.1838C15.1603 49.3654 15.5983 49.5684 16.0043 49.8141C16.4209 50.0491 16.8162 50.3269 17.2009 50.6154H17.2115L17.3291 50.7115C18.3226 51.5128 19.156 52.4957 19.797 53.5962C20.438 54.7073 20.8654 55.9145 21.0577 57.1752L21.0791 57.3248V57.3355C21.1432 57.8056 21.1752 58.2863 21.1752 58.7671C21.1752 59.2479 21.1432 59.7179 21.0791 60.1987V60.2094L21.0577 60.359C20.8654 61.6197 20.4273 62.8376 19.797 63.938C19.156 65.0491 18.3226 66.0214 17.3291 66.8226L17.2115 66.9188H17.2009C16.8269 67.2179 16.4209 67.485 16.0043 67.7201C15.5876 67.9551 15.1603 68.1688 14.7222 68.3504L14.5833 68.4038C14.2842 68.5214 13.985 68.6603 13.6859 68.7671C12.7991 69.0983 11.7842 69.0983 10.8547 69.0983C9.45513 69.0983 8.05556 68.8419 6.7735 68.265C6.60256 68.1902 6.42094 68.1367 6.22863 68.1367C5.55556 68.1367 5.01068 68.6709 5 69.344L5 69.5577Z" fill="white" fill-opacity="0.1"/>
</g>
<g clip-path="url(#clip2_587_160)">
<path d="M62.0805 29.1874L50.8122 17.9191C50.0444 17.1519 48.8022 17.1512 48.0344 17.9177L19.012 46.8747L21.7884 49.6578L49.4213 22.087L57.9131 30.5796L30.3431 58.2118L33.1255 60.9883L62.0824 31.9652C62.8483 31.1972 62.8477 29.9538 62.0805 29.1874Z" fill="white"/>
<path d="M65.4215 17.3304L62.67 14.5789C62.0293 13.9381 61.0348 13.8182 60.2605 14.2886L50.761 20.0538L52.8004 23.4141L60.9811 18.4487L61.551 19.0193L56.5864 27.1999L59.9466 29.2394L65.7119 19.7399C66.1821 18.9657 66.0622 17.9705 65.4215 17.3304Z" fill="white"/>
<path d="M36.7916 61.88L18.1203 43.2087C17.3531 42.4409 16.1083 42.4409 15.3412 43.2087C14.5734 43.9759 14.5734 45.2206 15.3412 45.9877L34.0126 64.6591C34.3959 65.043 34.8989 65.2349 35.4021 65.2349C35.9046 65.2349 36.4085 65.0429 36.7916 64.6591C37.5595 63.892 37.5595 62.6472 36.7916 61.88Z" fill="white"/>
<path d="M36.3014 44.7167L17.9592 63.1265L20.7434 65.9004L39.0855 47.4907L36.3014 44.7167Z" fill="white"/>
<path d="M32.4388 40.8544L14.0967 59.2642L16.8808 62.0381L35.223 43.6284L32.4388 40.8544Z" fill="white"/>
<path d="M25.3268 67.6449L12.3552 54.6725C11.5874 53.9053 10.3426 53.9041 9.57541 54.6725C8.8082 55.4398 8.8082 56.6838 9.57541 57.4516L22.5471 70.424C22.931 70.8079 23.4341 70.9998 23.9372 70.9998C24.4396 70.9998 24.9435 70.8078 25.3267 70.424C26.0941 69.6569 26.0941 68.4127 25.3268 67.6449Z" fill="white"/>
<path d="M70.9236 9.07587C70.1558 8.30804 68.9124 8.30804 68.1446 9.07587L61.2656 15.9548C60.4977 16.722 60.4977 17.9667 61.2656 18.7338C61.6495 19.1177 62.1519 19.3096 62.6551 19.3096C63.1583 19.3096 63.6613 19.1176 64.0446 18.7338L70.9235 11.8549C71.6915 11.0878 71.6915 9.84308 70.9236 9.07587Z" fill="white"/>
<path d="M31.8119 37.1141L29.0325 39.8936L40.1039 50.965L42.8834 48.1856L31.8119 37.1141Z" fill="white"/>
</g>
</g>
<defs>
<clipPath id="clip0_587_160">
<rect width="80" height="80" rx="16" fill="white"/>
</clipPath>
<clipPath id="clip1_587_160">
<rect width="35" height="65.5235" fill="white" transform="translate(5 26)"/>
</clipPath>
<clipPath id="clip2_587_160">
<rect width="62.5" height="62.5" fill="white" transform="translate(9 8.5)"/>
</clipPath>
</defs>
</svg>
