<svg width="63" height="63" viewBox="0 0 63 63" fill="none" xmlns="http://www.w3.org/2000/svg">
<g clip-path="url(#clip0_315_5928)">
<path d="M53.0805 20.6874L41.8122 9.41907C41.0444 8.65186 39.8022 8.65125 39.0344 9.41772L10.012 38.3747L12.7884 41.1578L40.4213 13.587L48.9131 22.0796L21.3431 49.7118L24.1255 52.4883L53.0824 23.4652C53.8483 22.6972 53.8477 21.4538 53.0805 20.6874Z" fill="white"/>
<path d="M56.4215 8.83045L53.67 6.07887C53.0293 5.43812 52.0348 5.31825 51.2605 5.78858L41.761 11.5538L43.8004 14.9141L51.9811 9.94873L52.551 10.5193L47.5864 18.6999L50.9466 20.7394L56.7119 11.2399C57.1821 10.4657 57.0622 9.47046 56.4215 8.83045Z" fill="white"/>
<path d="M27.7916 53.38L9.12029 34.7087C8.35308 33.9409 7.10833 33.9409 6.34125 34.7087C5.57343 35.4759 5.57343 36.7206 6.34125 37.4877L25.0126 56.1591C25.3959 56.543 25.8989 56.7349 26.4021 56.7349C26.9046 56.7349 27.4085 56.5429 27.7916 56.1591C28.5595 55.392 28.5595 54.1472 27.7916 53.38Z" fill="white"/>
<path d="M27.3014 36.2167L8.95923 54.6265L11.7434 57.4004L30.0855 38.9907L27.3014 36.2167Z" fill="white"/>
<path d="M23.4388 32.3544L5.09668 50.7642L7.88081 53.5381L26.223 35.1284L23.4388 32.3544Z" fill="white"/>
<path d="M16.3268 59.1449L3.35519 46.1725C2.58737 45.4053 1.34262 45.4041 0.575408 46.1725C-0.191803 46.9398 -0.191803 48.1838 0.575408 48.9516L13.5471 61.924C13.931 62.3079 14.4341 62.4998 14.9372 62.4998C15.4396 62.4998 15.9435 62.3078 16.3267 61.924C17.0941 61.1569 17.0941 59.9127 16.3268 59.1449Z" fill="white"/>
<path d="M61.9235 0.575866C61.1557 -0.191955 59.9123 -0.191955 59.1445 0.575866L52.2654 7.45476C51.4976 8.22197 51.4976 9.46672 52.2654 10.2338C52.6494 10.6177 53.1518 10.8096 53.655 10.8096C54.1581 10.8096 54.6612 10.6176 55.0445 10.2338L61.9234 3.35491C62.6913 2.58782 62.6913 1.34308 61.9235 0.575866Z" fill="white"/>
<path d="M22.8118 28.6141L20.0323 31.3936L31.1038 42.465L33.8833 39.6856L22.8118 28.6141Z" fill="white"/>
</g>
<defs>
<clipPath id="clip0_315_5928">
<rect width="62.5" height="62.5" fill="white"/>
</clipPath>
</defs>
</svg>
