<svg width="10" height="11" viewBox="0 0 10 11" fill="none" xmlns="http://www.w3.org/2000/svg">
<path d="M2.59882 0.347124C2.47587 0.320516 2.34872 0.319956 2.22554 0.345481C2.10237 0.371005 1.98591 0.422049 1.88366 0.495322C1.55339 0.688191 1.26698 0.947832 1.04273 1.25766C0.818478 1.56748 0.661322 1.92067 0.581298 2.29467C0.304296 3.47281 0.895413 4.81424 0.976784 5.00345C1.05815 5.19266 2.00986 8.04583 4.21917 9.57213C6.05236 10.8535 6.50123 10.789 6.95069 10.8522C7.40016 10.9153 8.50302 10.6083 8.82763 10.1029C9.15224 9.59757 9.27227 9.10876 9.23576 8.99643C9.19924 8.88409 9.05446 8.78372 8.84397 8.60838C8.63349 8.43303 7.59139 7.57743 7.38915 7.44655C7.18692 7.31566 7.03722 7.23624 6.82281 7.43925C6.6084 7.64225 6.02251 8.07256 5.84478 8.19915C5.66705 8.32573 5.52352 8.3141 5.31142 8.13837C4.66891 7.69027 4.10913 7.13395 3.65706 6.49423C3.25226 5.88497 2.9394 5.21943 2.72853 4.51901C2.6444 4.24752 2.80279 4.14529 2.94858 4.06052C3.09437 3.97574 3.25267 3.83778 3.4049 3.7256C3.53208 3.62772 3.64459 3.51213 3.73902 3.38237C3.78596 3.32361 3.81761 3.25413 3.83115 3.18015C3.84468 3.10617 3.83968 3.02998 3.81659 2.95841C3.78538 2.82351 3.59736 1.53263 3.49527 1.012C3.41262 0.560576 3.22434 0.507803 3.05492 0.454363C2.91793 0.422153 2.75837 0.384639 2.59882 0.347124Z" fill="#DE5738"/>
</svg>
