<svg width="8" height="12" viewBox="0 0 8 12" fill="none" xmlns="http://www.w3.org/2000/svg">
<path d="M3.99436 0C1.79408 0 0 1.79408 0 3.99436C0 6.72496 3.57687 10.7419 3.73484 10.9111C3.88152 11.0691 4.12976 11.0691 4.26516 10.9111C4.42313 10.7419 8 6.72496 8 3.99436C8 1.79408 6.20592 0 3.99436 0ZM3.99436 6.0141C2.88858 6.0141 1.9859 5.11142 1.9859 4.00564C1.9859 2.89986 2.88858 1.99718 3.99436 1.99718C5.10014 1.99718 6.00282 2.89986 6.00282 4.00564C6.00282 5.11142 5.11142 6.0141 3.99436 6.0141Z" fill="#DE5738"/>
</svg>
