<svg width="50" height="50" viewBox="0 0 50 50" fill="none" xmlns="http://www.w3.org/2000/svg">
<path d="M25 15.25C19.6239 15.25 15.25 19.6239 15.25 25C15.25 30.3761 19.6239 34.75 25 34.75C30.3761 34.75 34.75 30.3761 34.75 25C34.75 19.6239 30.3761 15.25 25 15.25ZM25 30.2458C24.8146 30.2458 24.6333 30.1908 24.4792 30.0878C24.325 29.9848 24.2048 29.8384 24.1339 29.667C24.0629 29.4957 24.0443 29.3072 24.0805 29.1254C24.1167 28.9435 24.206 28.7765 24.3371 28.6454C24.4682 28.5143 24.6352 28.425 24.8171 28.3888C24.999 28.3526 25.1875 28.3712 25.3588 28.4421C25.5301 28.5131 25.6765 28.6333 25.7795 28.7874C25.8825 28.9416 25.9375 29.1229 25.9375 29.3083C25.9375 29.5569 25.8387 29.7954 25.6629 29.9712C25.4871 30.147 25.2486 30.2458 25 30.2458ZM26.0181 20.8169L25.7491 26.5356C25.7491 26.7345 25.67 26.9253 25.5294 27.066C25.3887 27.2066 25.198 27.2856 24.9991 27.2856C24.8001 27.2856 24.6094 27.2066 24.4687 27.066C24.3281 26.9253 24.2491 26.7345 24.2491 26.5356L23.98 20.8197V20.8173C23.9741 20.68 23.9961 20.5428 24.0446 20.4142C24.0931 20.2855 24.1671 20.168 24.2622 20.0687C24.3574 19.9694 24.4716 19.8904 24.5981 19.8364C24.7245 19.7824 24.8606 19.7546 24.9981 19.7546C25.1356 19.7546 25.2717 19.7824 25.3982 19.8364C25.5246 19.8904 25.6389 19.9694 25.734 20.0687C25.8291 20.168 25.9032 20.2855 25.9517 20.4142C26.0002 20.5428 26.0221 20.68 26.0162 20.8173L26.0181 20.8169Z" fill="#666666"/>
</svg>
