<svg width="21" height="21" viewBox="0 0 21 21" fill="none" xmlns="http://www.w3.org/2000/svg">
<g clip-path="url(#clip0_480_6823)">
<path d="M20.9793 5.96897L18.9448 14.1103C18.7828 14.7552 18.2069 15.2069 17.5414 15.2069H4.98965C4.25517 15.2069 3.63448 14.6552 3.55172 13.9276L2.08621 2.17241H1.08621C0.486207 2.17241 0 1.68621 0 1.08621C0 0.486207 0.486207 0 1.08621 0H3.03103C3.57586 0 4.03448 0.4 4.1069 0.937931L4.67241 5.06897H20.2759C20.7448 5.06897 21.0931 5.51379 20.9793 5.96897Z" fill="#666666"/>
<path d="M4.34482 18.8276C4.34482 20.0242 5.32068 21 6.51723 21C7.71378 21 8.68964 20.0242 8.68964 18.8276C8.68964 17.6311 7.71378 16.6552 6.51723 16.6552C5.32068 16.6552 4.34482 17.6311 4.34482 18.8276Z" fill="#666666"/>
<path d="M17.3793 18.8276C17.3793 17.6311 16.4034 16.6552 15.2069 16.6552C14.0103 16.6552 13.0345 17.6311 13.0345 18.8276C13.0345 20.0242 14.0103 21 15.2069 21C16.4034 21 17.3793 20.0242 17.3793 18.8276Z" fill="#666666"/>
</g>
<defs>
<clipPath id="clip0_480_6823">
<rect width="21" height="21" fill="white"/>
</clipPath>
</defs>
</svg>
