<svg width="50" height="50" viewBox="0 0 50 50" fill="none" xmlns="http://www.w3.org/2000/svg">
<path d="M25 27.25C26.2426 27.25 27.25 26.2426 27.25 25C27.25 23.7574 26.2426 22.75 25 22.75C23.7574 22.75 22.75 23.7574 22.75 25C22.75 26.2426 23.7574 27.25 25 27.25Z" fill="#666666"/>
<path d="M35.0495 27.0625L35.0275 27.0447L33.5481 25.8845C33.4544 25.8104 33.3797 25.7151 33.33 25.6065C33.2803 25.4979 33.257 25.379 33.2622 25.2597V24.7178C33.2575 24.5992 33.281 24.4812 33.3308 24.3735C33.3806 24.2658 33.4552 24.1714 33.5486 24.0981L35.0275 22.9375L35.0495 22.9197C35.2776 22.7297 35.4307 22.4647 35.4813 22.1723C35.532 21.8798 35.477 21.5788 35.3261 21.3231L33.3241 17.8591C33.3218 17.8558 33.3197 17.8523 33.318 17.8488C33.1663 17.5966 32.9311 17.4056 32.6532 17.3089C32.3753 17.2121 32.0723 17.2157 31.7969 17.3191L31.7805 17.3252L30.0414 18.025C29.9316 18.0694 29.8129 18.087 29.695 18.0765C29.577 18.066 29.4633 18.0276 29.3631 17.9645C29.2094 17.8677 29.0531 17.7761 28.8944 17.6898C28.7914 17.634 28.7031 17.5548 28.6364 17.4586C28.5697 17.3623 28.5266 17.2518 28.5105 17.1358L28.2484 15.28L28.2428 15.2462C28.1858 14.9588 28.0315 14.6998 27.806 14.5127C27.5805 14.3255 27.2974 14.2218 27.0044 14.2188H22.9956C22.6985 14.2197 22.4112 14.3255 22.1844 14.5175C21.9576 14.7095 21.8058 14.9754 21.7558 15.2683L21.7516 15.2945L21.4905 17.1541C21.4744 17.2697 21.4317 17.38 21.3655 17.4762C21.2993 17.5724 21.2116 17.6518 21.1094 17.7081C20.9502 17.7939 20.7938 17.8849 20.6406 17.9809C20.5406 18.0436 20.4272 18.0817 20.3096 18.0921C20.192 18.1024 20.0736 18.0847 19.9642 18.0405L18.2237 17.3373L18.2073 17.3308C17.9315 17.2273 17.628 17.2238 17.3499 17.321C17.0717 17.4181 16.8364 17.6097 16.6848 17.8623L16.6787 17.8727L14.6739 21.3391C14.5228 21.595 14.4676 21.8963 14.5183 22.1891C14.569 22.482 14.7222 22.7472 14.9505 22.9375L14.9725 22.9553L16.4519 24.1155C16.5456 24.1896 16.6203 24.2849 16.67 24.3935C16.7197 24.5021 16.743 24.621 16.7378 24.7403V25.2822C16.7425 25.4008 16.719 25.5188 16.6692 25.6265C16.6194 25.7342 16.5448 25.8286 16.4514 25.9019L14.9725 27.0625L14.9505 27.0803C14.7224 27.2703 14.5693 27.5353 14.5187 27.8277C14.468 28.1202 14.523 28.4212 14.6739 28.6769L16.6759 32.1409C16.6782 32.1442 16.6803 32.1477 16.682 32.1512C16.8337 32.4034 17.0689 32.5944 17.3468 32.6911C17.6247 32.7879 17.9276 32.7843 18.2031 32.6809L18.2195 32.6748L19.9572 31.975C20.0669 31.9306 20.1857 31.913 20.3036 31.9235C20.4215 31.934 20.5353 31.9724 20.6355 32.0355C20.7892 32.1327 20.9455 32.2242 21.1042 32.3102C21.2071 32.366 21.2955 32.4452 21.3622 32.5414C21.4289 32.6377 21.472 32.7482 21.4881 32.8642L21.7487 34.72L21.7544 34.7537C21.8115 35.0417 21.9662 35.3011 22.1923 35.4882C22.4184 35.6754 22.7021 35.7789 22.9956 35.7812H27.0044C27.3015 35.7803 27.5888 35.6745 27.8156 35.4825C28.0424 35.2905 28.1942 35.0246 28.2442 34.7317L28.2484 34.7055L28.5095 32.8459C28.5258 32.7301 28.5689 32.6196 28.6355 32.5234C28.7021 32.4272 28.7903 32.3479 28.893 32.2919C29.0533 32.2056 29.2098 32.1142 29.3617 32.0191C29.4617 31.9564 29.5752 31.9183 29.6928 31.9079C29.8103 31.8976 29.9287 31.9153 30.0381 31.9595L31.7786 32.6603L31.795 32.6669C32.0709 32.7705 32.3743 32.7741 32.6526 32.677C32.9308 32.5798 33.1661 32.3881 33.3175 32.1353C33.3193 32.1318 33.3214 32.1283 33.3236 32.125L35.3256 28.6614C35.477 28.4055 35.5324 28.1041 35.4818 27.8112C35.4312 27.5182 35.278 27.2528 35.0495 27.0625ZM28.7458 25.1763C28.7116 25.9021 28.4673 26.6025 28.0425 27.1921C27.6178 27.7817 27.0308 28.2352 26.3531 28.4974C25.6753 28.7597 24.936 28.8193 24.225 28.6692C23.514 28.519 22.8619 28.1655 22.3481 27.6516C21.8343 27.1377 21.4808 26.4856 21.3308 25.7746C21.1807 25.0635 21.2404 24.3242 21.5027 23.6465C21.765 22.9688 22.2186 22.3819 22.8083 21.9572C23.3979 21.5325 24.0983 21.2883 24.8242 21.2542C25.3453 21.2313 25.8656 21.317 26.3518 21.506C26.838 21.695 27.2795 21.9831 27.6484 22.352C28.0172 22.7208 28.3052 23.1624 28.4942 23.6487C28.6831 24.1349 28.7688 24.6551 28.7458 25.1763Z" fill="#666666"/>
</svg>
