<svg width="40" height="36" viewBox="0 0 40 36" fill="none" xmlns="http://www.w3.org/2000/svg">
<path d="M36.492 7.70894H30.524C30.14 7.70894 29.824 7.39694 29.824 7.00894V1.16494C29.824 0.776937 29.508 0.460938 29.12 0.460938H10.876C10.488 0.460938 10.176 0.776937 10.176 1.16494V7.00894C10.176 7.39694 9.86 7.70894 9.472 7.70894H3.508C1.572 7.70894 0 9.28494 0 11.2209V31.1049C0 33.0409 1.568 34.6129 3.508 34.6129H5.2V34.7929C5.2 35.1969 5.824 35.5289 6.6 35.5289H12.272C13.048 35.5289 13.672 35.1969 13.672 34.7929V34.6129H26.888V34.7929C26.888 35.1969 27.52 35.5289 28.292 35.5289H33.964C34.736 35.5289 35.368 35.1969 35.368 34.7929V34.6129H36.492C38.428 34.6129 40 33.0449 40 31.1049V11.2169C40 9.28494 38.428 7.70894 36.492 7.70894ZM16.14 4.55694C16.14 4.16894 16.456 3.85294 16.84 3.85294H23.156C23.548 3.85294 23.86 4.16894 23.86 4.55694V7.00894C23.86 7.39694 23.548 7.70894 23.156 7.70894H21.688V7.68894C21.688 7.30494 21.372 6.98894 20.988 6.98894H18.996C18.608 6.98894 18.296 7.30494 18.296 7.68894V7.70894H16.84C16.456 7.70894 16.14 7.39694 16.14 7.00894V4.55694ZM25.348 22.7849C25.348 22.9729 25.196 23.1249 25.004 23.1249H22.16C21.968 23.1249 21.816 23.2769 21.816 23.4649V26.3169C21.816 26.5049 21.664 26.6569 21.476 26.6569H19.092C18.9 26.6569 18.748 26.5049 18.748 26.3169V23.4649C18.748 23.2769 18.596 23.1249 18.408 23.1249H15.556C15.368 23.1249 15.22 22.9729 15.22 22.7849V20.3969C15.22 20.2129 15.372 20.0569 15.556 20.0569H18.408C18.596 20.0569 18.748 19.9089 18.748 19.7169V16.8689C18.748 16.6809 18.9 16.5289 19.092 16.5289H21.476C21.664 16.5289 21.816 16.6809 21.816 16.8689V19.7169C21.816 19.9089 21.968 20.0569 22.16 20.0569H25.004C25.196 20.0569 25.348 20.2129 25.348 20.3969V22.7849Z" />
</svg>
