<svg width="773" height="1411" viewBox="0 0 773 1411" fill="none" xmlns="http://www.w3.org/2000/svg">
<path fill-rule="evenodd" clip-rule="evenodd" d="M131.034 570.391C59.864 570.391 2.12695 626.717 2.12695 696.148C2.12695 765.579 59.864 821.905 131.034 821.905C202.204 821.905 259.941 765.579 259.941 696.148C259.941 626.717 202.204 570.391 131.034 570.391Z" fill="#DB4313"/>
<path fill-rule="evenodd" clip-rule="evenodd" d="M0 937.318V1006.98V1145.38V1284.47C0 1353.67 57.9728 1410.23 128.907 1410.23C199.84 1410.23 257.812 1353.67 257.812 1284.47V922.834L578.781 1103.54C640.053 1138.02 719.47 1117.33 754.819 1057.56C790.168 997.782 768.959 920.305 707.687 885.819L386.954 705.115L707.687 524.411C768.959 489.925 790.404 412.447 754.819 352.672C719.47 292.897 640.053 271.976 578.781 306.692L258.048 487.396V125.757C258.048 56.5563 200.076 0 129.142 0C58.2081 0 0.23589 56.5563 0.23589 125.757V476.82C0.23589 491.304 12.2546 503.259 27.3368 503.259C31.1074 503.259 34.8778 502.34 38.4127 500.96C67.3989 489.465 97.799 482.568 129.142 482.568C157.421 482.568 185.229 487.626 211.623 497.512L214.687 498.661V498.891C224.349 502.8 234.011 507.168 242.966 512.456C252.156 517.513 260.876 523.491 269.36 529.698H269.595L272.187 531.767C294.104 549.01 312.485 570.161 326.625 593.841C340.765 617.751 350.191 643.731 354.433 670.859L354.904 674.078V674.308C356.318 684.424 357.025 694.769 357.025 705.115C357.025 715.461 356.318 725.576 354.904 735.922V736.152L354.433 739.371C350.191 766.499 340.529 792.708 326.625 816.388C312.485 840.298 294.104 861.22 272.187 878.462L269.595 880.532H269.36C261.111 886.969 252.156 892.716 242.966 897.774C233.775 902.832 224.349 907.43 214.687 911.339L211.623 912.488C205.024 915.017 198.426 918.006 191.828 920.305C172.268 927.432 149.88 927.432 129.378 927.432C98.5062 927.432 67.6349 921.914 39.3557 909.499C35.5851 907.89 31.5787 906.741 27.3368 906.741C12.4902 906.741 0.47155 918.236 0.23589 932.72L0 937.318Z" fill="#018992"/>
</svg>
