<svg viewBox="0 0 50 50"  xmlns="http://www.w3.org/2000/svg">
<path d="M25.2606 17.7473C25.1908 17.6806 25.098 17.6433 25.0014 17.6433C24.9048 17.6433 24.812 17.6806 24.7422 17.7473L16.1125 25.9912C16.0758 26.0263 16.0467 26.0684 16.0268 26.1151C16.0069 26.1617 15.9966 26.2119 15.9967 26.2626L15.9953 33.9998C15.9953 34.3977 16.1533 34.7792 16.4346 35.0605C16.7159 35.3418 17.0975 35.4998 17.4953 35.4998H22C22.1989 35.4998 22.3897 35.4208 22.5303 35.2802C22.671 35.1395 22.75 34.9487 22.75 34.7498V28.3748C22.75 28.2754 22.7895 28.18 22.8598 28.1097C22.9302 28.0393 23.0255 27.9998 23.125 27.9998H26.875C26.9745 27.9998 27.0698 28.0393 27.1402 28.1097C27.2105 28.18 27.25 28.2754 27.25 28.3748V34.7498C27.25 34.9487 27.329 35.1395 27.4697 35.2802C27.6103 35.4208 27.8011 35.4998 28 35.4998H32.5028C32.9006 35.4998 33.2822 35.3418 33.5635 35.0605C33.8448 34.7792 34.0028 34.3977 34.0028 33.9998V26.2626C34.0029 26.2119 33.9926 26.1617 33.9727 26.1151C33.9528 26.0684 33.9237 26.0263 33.887 25.9912L25.2606 17.7473Z" />
<path d="M36.0114 24.4445L32.5051 21.0902V16C32.5051 15.8011 32.4261 15.6103 32.2855 15.4697C32.1448 15.329 31.954 15.25 31.7551 15.25H29.5051C29.3062 15.25 29.1155 15.329 28.9748 15.4697C28.8341 15.6103 28.7551 15.8011 28.7551 16V17.5L26.0401 14.9041C25.7861 14.6472 25.4083 14.5 25 14.5C24.5931 14.5 24.2162 14.6472 23.9622 14.9045L13.9919 24.4436C13.7003 24.7248 13.6637 25.1875 13.929 25.4922C13.9957 25.5691 14.0772 25.6316 14.1688 25.676C14.2604 25.7204 14.36 25.7457 14.4617 25.7503C14.5633 25.755 14.6648 25.7389 14.7601 25.7031C14.8553 25.6672 14.9422 25.6124 15.0156 25.5419L24.7422 16.2475C24.812 16.1807 24.9048 16.1435 25.0014 16.1435C25.098 16.1435 25.1908 16.1807 25.2606 16.2475L34.9881 25.5419C35.1314 25.6793 35.3233 25.7543 35.5218 25.7504C35.7203 25.7465 35.9092 25.6641 36.047 25.5212C36.3348 25.2231 36.3109 24.7309 36.0114 24.4445Z"/>
</svg>
