<svg width="60" height="60"  viewBox="0 0 50 50"  xmlns="http://www.w3.org/2000/svg">
<g clip-path="url(#clip0_479_6816)">
<path fill-rule="evenodd" clip-rule="evenodd" d="M0 18.2809V19.6339V22.3398V25.0458C0 26.3987 1.1242 27.5 2.50535 27.5C3.88651 27.5 5.01071 26.3987 5.01071 25.0458V17.9977L11.242 21.5217C12.4304 22.1825 13.9722 21.8049 14.6788 20.6093C15.3533 19.4451 14.9679 17.9348 13.7473 17.2426L7.51606 13.75L13.7473 10.226C14.9358 9.56522 15.3533 8.05492 14.6788 6.85927C14.0043 5.69508 12.4625 5.28604 11.242 5.9468L5.01071 9.50229V2.45423C5.01071 1.10126 3.88651 0 2.50535 0C1.1242 0 0 1.10126 0 2.45423V9.3135C0 9.59668 0.224839 9.81693 0.513919 9.81693C0.578158 9.81693 0.674518 9.78547 0.738758 9.78547C1.31692 9.56522 1.89508 9.43936 2.50535 9.43936C3.05139 9.43936 3.59743 9.53375 4.11135 9.72254L4.17559 9.754C4.36831 9.81693 4.56103 9.91133 4.72163 10.0057C4.91435 10.1001 5.07495 10.226 5.23555 10.3518L5.29979 10.3833C5.71734 10.7294 6.07066 11.1384 6.35974 11.6104C6.64882 12.0824 6.80942 12.5858 6.90578 13.1207V13.1836C6.9379 13.3724 6.9379 13.5927 6.9379 13.7815C6.9379 13.9703 6.9379 14.1905 6.90578 14.3793V14.4422C6.80942 14.9771 6.64882 15.4805 6.35974 15.9525C6.07066 16.4245 5.71734 16.8335 5.29979 17.1796L5.23555 17.2111C5.07495 17.337 4.91435 17.4628 4.72163 17.5572C4.52891 17.6516 4.36831 17.746 4.17559 17.8089L4.11135 17.8404C3.98287 17.9033 3.85439 17.9348 3.72591 17.9977C3.34047 18.1236 2.92291 18.1236 2.50535 18.1236C1.89508 18.1236 1.31692 18.0292 0.770878 17.7775C0.706638 17.746 0.610278 17.7145 0.546039 17.7145C0.224839 17.6831 0 17.9348 0 18.218V18.2809ZM2.50535 11.2958C1.1242 11.2958 0 12.397 0 13.75C0 15.103 1.1242 16.2042 2.50535 16.2042C3.88651 16.2042 5.01071 15.103 5.01071 13.75C5.01071 12.397 3.88651 11.2958 2.50535 11.2958Z" fill="#666666"/>
</g>
<defs>
<clipPath id="clip0_479_6816">
<rect width="15" height="27.5" fill="white"/>
</clipPath>
</defs>
</svg>
