<svg xmlns="http://www.w3.org/2000/svg" viewBox="0 0 262.55 61.81">
    <title>sscondominio</title>
    <g id="Capa_2" data-name="Capa 2">
        <g id="Capa_1-2" data-name="Capa 1"><text transform="translate(109.19 52.07) scale(0.98 1)" font-size="30"
                font-family="ArialMT, Arial" letter-spacing="-0.01em">Condominio</text>
            <path
                d="M41.38,54.18l54.17-3A11.22,11.22,0,0,0,106.1,39.34a6.39,6.39,0,0,0-.22-1.57l-.47-2.38A10.44,10.44,0,0,0,94.1,27.1L77.28,28.92a6.54,6.54,0,0,1-7.19-5.76,8.83,8.83,0,0,1,0-1.78l.38-2.17A11.64,11.64,0,0,1,80.89,9.59L140.67,3.8"
                fill-opacity="0" stroke-width="3.4" />
            <path
                d="M.1,52.07l54.17-3A11.22,11.22,0,0,0,64.82,37.23a24.87,24.87,0,0,0-.69-3.95A10.32,10.32,0,0,0,52.82,25L36,26.85A6.59,6.59,0,0,1,28.81,21a8.07,8.07,0,0,1,0-1.7l.38-2.16A11.63,11.63,0,0,1,39.61,7.48L99.34,1.69"
                fill-opacity="0" stroke-width="3.4" />
        </g>
    </g>
</svg>