<svg width="161" height="38" viewBox="0 0 161 38" fill="none" xmlns="http://www.w3.org/2000/svg">
<path fill-rule="evenodd" clip-rule="evenodd" d="M144.402 15.2822C142.559 15.2822 141.064 16.7773 141.064 18.6201C141.064 20.463 142.559 21.958 144.402 21.958C146.245 21.958 147.74 20.463 147.74 18.6201C147.74 16.7773 146.245 15.2822 144.402 15.2822Z" fill="white"/>
<path fill-rule="evenodd" clip-rule="evenodd" d="M141.009 25.0213V26.8703V30.5438V34.2356C141.009 36.0724 142.51 37.5736 144.347 37.5736C146.184 37.5736 147.685 36.0724 147.685 34.2356V24.6369L155.996 29.4332C157.583 30.3485 159.639 29.7993 160.555 28.2128C161.47 26.6262 160.921 24.5697 159.334 23.6544L151.029 18.8581L159.334 14.0617C160.921 13.1464 161.476 11.0899 160.555 9.50337C159.639 7.9168 157.583 7.3615 155.996 8.28293L147.691 13.0793V3.48049C147.691 1.64372 146.19 0.142578 144.353 0.142578C142.517 0.142578 141.015 1.64372 141.015 3.48049V12.7986C141.015 13.183 141.327 13.5003 141.717 13.5003C141.815 13.5003 141.912 13.4759 142.004 13.4393C142.755 13.1342 143.542 12.9511 144.353 12.9511C145.086 12.9511 145.806 13.0854 146.489 13.3478L146.568 13.3783V13.3844C146.819 13.4881 147.069 13.6041 147.301 13.7444C147.539 13.8787 147.764 14.0373 147.984 14.2021H147.99L148.057 14.257C148.625 14.7147 149.101 15.2761 149.467 15.9046C149.833 16.5392 150.077 17.2288 150.187 17.9488L150.199 18.0343V18.0404C150.236 18.3089 150.254 18.5835 150.254 18.8581C150.254 19.1327 150.236 19.4012 150.199 19.6758V19.6819L150.187 19.7673C150.077 20.4874 149.827 21.183 149.467 21.8115C149.101 22.4462 148.625 23.0015 148.057 23.4591L147.99 23.5141H147.984C147.771 23.6849 147.539 23.8375 147.301 23.9717C147.063 24.106 146.819 24.228 146.568 24.3318L146.489 24.3623C146.318 24.4294 146.147 24.5087 145.977 24.5697C145.47 24.7589 144.89 24.7589 144.359 24.7589C143.56 24.7589 142.761 24.6125 142.028 24.2829C141.931 24.2402 141.827 24.2097 141.717 24.2097C141.333 24.2097 141.021 24.5148 141.015 24.8993L141.009 25.0213Z" fill="white"/>
<path fill-rule="evenodd" clip-rule="evenodd" d="M134.767 26.2538C134.566 26.1684 134.382 26.0951 134.224 26.0341C134.041 25.967 133.87 25.9182 133.717 25.8816C133.559 25.845 133.412 25.8206 133.266 25.8083C133.125 25.7961 132.979 25.79 132.826 25.79C132.411 25.79 132.027 25.8572 131.673 25.9975C131.319 26.1318 131.014 26.3209 130.758 26.565C130.501 26.803 130.3 27.0898 130.154 27.4193C130.007 27.7488 129.934 28.1089 129.934 28.4994C129.934 28.8961 130.007 29.2561 130.154 29.5917C130.3 29.9273 130.508 30.2141 130.77 30.4582C131.032 30.7023 131.344 30.8915 131.698 31.0318C132.051 31.1661 132.442 31.2393 132.863 31.2393C133.162 31.2393 133.479 31.1966 133.821 31.1112C134.163 31.0257 134.511 30.8915 134.871 30.7145V28.4201C134.871 28.3713 134.828 28.3286 134.779 28.3286C134.767 28.3286 134.749 28.3347 134.743 28.3347L133.943 28.6947C133.9 28.713 133.87 28.7618 133.87 28.8106V30.1653C133.723 30.2324 133.577 30.2752 133.418 30.3057C133.26 30.3362 133.083 30.3484 132.881 30.3484C132.558 30.3484 132.277 30.2996 132.045 30.1958C131.813 30.0921 131.612 29.9578 131.46 29.787C131.301 29.6161 131.185 29.4209 131.112 29.2012C131.038 28.9815 131.002 28.7557 131.002 28.5238C131.002 28.2614 131.045 28.0173 131.136 27.7916C131.228 27.5719 131.35 27.3766 131.508 27.218C131.667 27.0532 131.85 26.9312 132.07 26.8335C132.289 26.742 132.521 26.6932 132.778 26.6932C133.016 26.6932 133.278 26.7298 133.553 26.7969C133.809 26.8579 134.096 26.9739 134.431 27.1447C134.431 27.1447 134.431 27.1447 134.437 27.1447C134.45 27.1508 134.462 27.1508 134.474 27.1508C134.511 27.1508 134.547 27.1264 134.559 27.0898L134.828 26.3697C134.834 26.3575 134.834 26.3514 134.834 26.3392C134.828 26.3026 134.804 26.2721 134.767 26.2538ZM111.334 28.6337C111.334 28.8961 111.286 29.1341 111.194 29.3537C111.103 29.5734 110.974 29.7687 110.81 29.9334C110.645 30.0982 110.456 30.2263 110.236 30.3179C110.016 30.4094 109.778 30.4582 109.522 30.4582C109.266 30.4582 109.028 30.4094 108.808 30.3179C108.588 30.2263 108.399 30.0982 108.235 29.9334C108.07 29.7687 107.942 29.5734 107.85 29.3537C107.752 29.1341 107.71 28.89 107.71 28.6337C107.71 28.3713 107.759 28.1333 107.85 27.9136C107.948 27.6939 108.076 27.4987 108.235 27.3339C108.399 27.1691 108.588 27.041 108.808 26.9495C109.028 26.8579 109.266 26.8091 109.522 26.8091C109.778 26.8091 110.016 26.8579 110.236 26.9495C110.456 27.041 110.645 27.1691 110.81 27.3339C110.974 27.4987 111.103 27.6939 111.194 27.9136C111.292 28.1333 111.334 28.3713 111.334 28.6337ZM112.372 28.6337C112.372 28.2553 112.299 27.9014 112.152 27.5658C112.006 27.2363 111.804 26.9434 111.548 26.6993C111.292 26.4552 110.987 26.2599 110.645 26.1196C110.297 25.9792 109.925 25.906 109.528 25.906C109.132 25.906 108.753 25.9792 108.411 26.1196C108.064 26.2599 107.765 26.4552 107.508 26.6993C107.252 26.9434 107.051 27.2302 106.904 27.5658C106.758 27.8953 106.685 28.2553 106.685 28.6337C106.685 29.0181 106.758 29.372 106.904 29.7016C107.051 30.0311 107.252 30.3179 107.508 30.5681C107.765 30.8122 108.064 31.0074 108.411 31.1478C108.759 31.2881 109.132 31.3553 109.528 31.3553C109.925 31.3553 110.303 31.2881 110.645 31.1478C110.993 31.0074 111.292 30.8122 111.548 30.5681C111.804 30.324 112.006 30.0311 112.152 29.7016C112.299 29.372 112.372 29.0181 112.372 28.6337ZM121.757 26.4857C121.757 26.4369 121.788 26.4003 121.824 26.382L122.642 26.0036C122.654 25.9975 122.648 25.9914 122.685 25.9914C122.715 25.9914 122.776 26.0341 122.776 26.0829V30.8061V30.9891V31.2027C122.776 31.2515 122.733 31.2942 122.685 31.2942H121.849C121.8 31.2942 121.757 31.2515 121.757 31.2027V30.9891V30.8061V26.4857ZM128.256 31.2942C128.213 31.2942 128.17 31.2759 128.146 31.2454L124.997 27.7244V30.8061V31.044V31.1966C124.997 31.2454 124.955 31.2881 124.906 31.2881H124.07C124.021 31.2881 123.978 31.2454 123.978 31.1966V31.044V30.8061V26.0951V26.089C123.978 26.0402 124.021 25.9975 124.07 25.9975H124.686C124.729 25.9975 124.772 26.0158 124.796 26.0463L127.914 29.5368V26.4003V26.2172V26.0829C127.914 26.0341 127.957 25.9914 128.006 25.9914H128.829C128.878 25.9914 128.921 26.0341 128.921 26.0829V26.2172V26.4003V31.2027C128.921 31.2515 128.878 31.2942 128.829 31.2942H128.256ZM118.474 26.7115H119.078C119.383 26.7115 119.603 26.7786 119.737 26.9128C119.871 27.0471 119.939 27.2058 119.939 27.3888C119.939 27.4865 119.92 27.5719 119.89 27.6573C119.859 27.7427 119.804 27.816 119.737 27.877C119.67 27.938 119.572 27.9868 119.463 28.0296C119.347 28.0662 119.206 28.0845 119.042 28.0845H118.474V26.7115ZM117.546 25.9975H117.626H118.382H119.133C119.456 25.9975 119.737 26.0402 119.969 26.1196C120.201 26.1989 120.39 26.3087 120.543 26.4491C120.695 26.5894 120.805 26.7481 120.872 26.9312C120.939 27.1142 120.976 27.3095 120.976 27.517C120.976 27.7061 120.945 27.8953 120.884 28.0784C120.823 28.2614 120.72 28.4262 120.573 28.5787C120.427 28.7252 120.231 28.8472 119.987 28.9388C119.743 29.0303 119.438 29.0791 119.066 29.0791H118.474V30.9708V31.1417V31.2088C118.474 31.2576 118.431 31.3003 118.382 31.3003H117.546C117.498 31.3003 117.455 31.2576 117.455 31.2088V31.1417V30.9708V26.3331V26.1989V26.0951C117.455 26.0341 117.498 25.9975 117.546 25.9975ZM103.341 26.6382V28.2431L105.208 26.0524C105.232 26.0219 105.269 26.0036 105.312 26.0036H106.3C106.349 26.0036 106.392 26.0585 106.392 26.0951C106.392 26.1318 106.386 26.1379 106.367 26.1562L104.25 28.6459L106.367 31.1417C106.379 31.16 106.392 31.1661 106.392 31.2027C106.392 31.2393 106.349 31.2942 106.3 31.2942H105.312C105.269 31.2942 105.232 31.2759 105.208 31.2454L103.341 29.0547V30.745V30.9708V31.1966C103.341 31.2454 103.298 31.2881 103.249 31.2881H102.419C102.37 31.2881 102.328 31.2454 102.328 31.1966V30.9708V30.8366V30.7511V30.6291V30.446V26.6443V26.4979C102.328 26.4491 102.358 26.4125 102.395 26.3942L103.212 26.0158C103.225 26.0097 103.237 26.0036 103.255 26.0036C103.304 26.0036 103.347 26.0463 103.347 26.0951V26.6382H103.341ZM113.257 26.864V26.9861V28.5543V28.7374V28.951V30.3728V31.2088V31.2149C113.257 31.2637 113.299 31.3064 113.348 31.3064H113.373H113.592H116.643H116.649C116.698 31.3064 116.741 31.2637 116.741 31.2149C116.741 31.2027 116.741 31.1905 116.735 31.1783L116.448 30.5193C116.43 30.4765 116.387 30.446 116.344 30.446H114.288V28.9449V26.98V26.8579V26.7359V26.0585C114.288 26.0097 114.245 25.967 114.196 25.967C114.184 25.967 114.166 25.9731 114.154 25.9792L113.33 26.3575C113.287 26.3759 113.263 26.4186 113.263 26.4613V26.742V26.864H113.257ZM85.0461 26.864V26.9861V28.5543V28.7374V28.951V30.3728V31.2088V31.2149C85.0461 31.2637 85.0888 31.3064 85.1376 31.3064H85.162H85.3817H88.4328H88.4389C88.4877 31.3064 88.5305 31.2637 88.5305 31.2149C88.5305 31.2027 88.5305 31.1905 88.5244 31.1783L88.2376 30.5193C88.2192 30.4765 88.1765 30.446 88.1338 30.446H86.0774V28.9449V26.98V26.8579V26.7359V26.0585C86.0774 26.0097 86.0347 25.967 85.9858 25.967C85.9736 25.967 85.9553 25.9731 85.9431 25.9792L85.1193 26.3575C85.0766 26.3759 85.0522 26.4186 85.0522 26.4613V26.742V26.864H85.0461ZM92.1735 25.967H89.4763H89.3665H89.2627C89.2139 25.967 89.1712 26.0097 89.1712 26.0585V26.1562V26.2965V30.9586V31.0807V31.2027C89.1712 31.2515 89.2139 31.2942 89.2627 31.2942H89.3543H89.4763H89.8913H90.0682H90.1048C90.1536 31.2942 90.1964 31.2515 90.1964 31.2027V31.0807V30.9586V28.9571H91.7402H91.844H91.9477C91.9965 28.9571 92.0392 28.9144 92.0392 28.8656V28.7984V28.6215V28.4262V28.2553V28.1821C92.0392 28.1333 91.9965 28.0906 91.9477 28.0906H91.844H91.7402H90.1964V26.8335H91.8806C91.8806 26.8335 91.8867 26.8335 91.8928 26.8335C91.9904 26.8335 92.0758 26.7725 92.1125 26.6871L92.326 26.1928C92.3321 26.1745 92.3382 26.1501 92.3382 26.1257C92.3382 26.0402 92.265 25.967 92.1735 25.967ZM69.7662 28.9449H68.6433L69.1986 27.7183L69.7662 28.9449ZM69.3451 25.9548C69.3573 25.9487 69.3695 25.9426 69.3878 25.9426C69.4244 25.9426 69.4549 25.9609 69.4732 25.9975L71.8714 31.1356L71.8836 31.16C71.8897 31.1722 71.8897 31.1844 71.8897 31.1966C71.8897 31.2454 71.847 31.2881 71.7982 31.2881H70.9439C70.8768 31.2881 70.8218 31.2515 70.7974 31.1966V31.1905L70.7608 31.1051L70.1628 29.7931H68.2589L67.6548 31.1051L67.6121 31.1905V31.1966C67.5816 31.2515 67.5266 31.2881 67.4656 31.2881H66.6296C66.5808 31.2881 66.5381 31.2454 66.5381 31.1966C66.5381 31.1844 66.5442 31.1661 66.5503 31.1539L66.5747 31.1051L68.8203 26.2294C68.8386 26.1867 68.8691 26.1562 68.9118 26.1379L69.3451 25.9548ZM84.0453 28.6459C84.0453 28.2614 83.9721 27.9075 83.8257 27.5719C83.6792 27.2363 83.4717 26.9495 83.2154 26.6993C82.9591 26.4552 82.654 26.2599 82.3062 26.1135C81.9584 25.9731 81.58 25.8999 81.1773 25.8999C80.7746 25.8999 80.4023 25.9731 80.0484 26.1135C79.7006 26.2538 79.3954 26.4491 79.1392 26.6993C78.8829 26.9434 78.6815 27.2363 78.535 27.5719C78.3886 27.9075 78.3154 28.2614 78.3154 28.6459C78.3154 29.0303 78.3886 29.3903 78.535 29.726C78.6815 30.0555 78.8829 30.3484 79.1392 30.5986C79.3954 30.8488 79.7006 31.044 80.0484 31.1844C80.3962 31.3247 80.7746 31.398 81.1773 31.398C81.58 31.398 81.9523 31.3308 82.3062 31.1844C82.654 31.044 82.9591 30.8488 83.2154 30.5986C83.4717 30.3484 83.6792 30.0616 83.8257 29.726C83.9721 29.3903 84.0453 29.0303 84.0453 28.6459ZM83.008 28.6459C83.008 28.9083 82.9591 29.1524 82.8676 29.372C82.7761 29.5978 82.6479 29.787 82.4771 29.9578C82.3123 30.1226 82.117 30.2508 81.8974 30.3484C81.6777 30.4399 81.4397 30.4887 81.1834 30.4887C80.9271 30.4887 80.6891 30.4399 80.4694 30.3484C80.2498 30.2569 80.0545 30.1287 79.8958 29.9578C79.7311 29.7931 79.6029 29.5978 79.5053 29.372C79.4077 29.1463 79.3649 28.9083 79.3649 28.6459C79.3649 28.3835 79.4138 28.1394 79.5053 27.9197C79.6029 27.6939 79.7311 27.4987 79.8958 27.3339C80.0606 27.1691 80.2498 27.041 80.4694 26.9434C80.6891 26.8518 80.9271 26.803 81.1834 26.803C81.4397 26.803 81.6777 26.8518 81.8974 26.9434C82.117 27.0349 82.3123 27.163 82.4771 27.3339C82.6418 27.4987 82.77 27.6939 82.8676 27.9197C82.9591 28.1394 83.008 28.3835 83.008 28.6459ZM98.6113 28.6337C98.6113 28.2492 98.5381 27.8953 98.3916 27.5597C98.2452 27.2241 98.0377 26.9373 97.7814 26.6871C97.5251 26.443 97.22 26.2477 96.8722 26.1013C96.5244 25.9609 96.146 25.8877 95.7433 25.8877C95.3405 25.8877 94.9683 25.9609 94.6144 26.1013C94.2665 26.2416 93.9614 26.4369 93.7051 26.6871C93.4488 26.9312 93.2475 27.2241 93.101 27.5597C92.9546 27.8953 92.8813 28.2492 92.8813 28.6337C92.8813 29.0181 92.9546 29.3781 93.101 29.7138C93.2475 30.0433 93.4488 30.3362 93.7051 30.5864C93.9614 30.8366 94.2665 31.0318 94.6144 31.1722C94.9622 31.3125 95.3405 31.3858 95.7433 31.3858C96.146 31.3858 96.5183 31.3125 96.8722 31.1722C97.22 31.0318 97.5251 30.8366 97.7814 30.5864C98.0377 30.3362 98.2452 30.0494 98.3916 29.7138C98.5381 29.3781 98.6113 29.0181 98.6113 28.6337ZM97.5739 28.6337C97.5739 28.8961 97.5251 29.1402 97.4336 29.3598C97.3421 29.5856 97.2139 29.7809 97.0431 29.9456C96.8783 30.1104 96.683 30.2385 96.4633 30.3362C96.2437 30.4277 96.0057 30.4765 95.7494 30.4765C95.4931 30.4765 95.2551 30.4277 95.0354 30.3362C94.8157 30.2447 94.6205 30.1165 94.4618 29.9456C94.2971 29.7809 94.1689 29.5856 94.0713 29.3598C93.9736 29.134 93.9309 28.8961 93.9309 28.6337C93.9309 28.3713 93.9797 28.1272 94.0713 27.9075C94.1689 27.6817 94.2971 27.4865 94.4618 27.3217C94.6266 27.1569 94.8157 27.0288 95.0354 26.9312C95.2551 26.8396 95.4931 26.7908 95.7494 26.7908C96.0057 26.7908 96.2437 26.8396 96.4633 26.9312C96.683 27.0227 96.8783 27.1508 97.0431 27.3217C97.2078 27.4865 97.336 27.6817 97.4336 27.9075C97.5251 28.1272 97.5739 28.3713 97.5739 28.6337ZM73.5678 26.8396H74.5747C74.8493 26.8396 75.1056 26.8823 75.3314 26.9678C75.5572 27.0532 75.7585 27.1752 75.9233 27.3278C76.0881 27.4804 76.2162 27.6634 76.3077 27.8831C76.3993 28.0967 76.442 28.3347 76.442 28.5971C76.442 28.8961 76.3932 29.1646 76.2955 29.3903C76.1979 29.6161 76.0636 29.8114 75.8989 29.964C75.7341 30.1226 75.5389 30.2385 75.3253 30.3179C75.1056 30.3972 74.8798 30.4399 74.6357 30.4399H73.5678V26.8396ZM72.7562 31.2942H72.6342C72.5854 31.2942 72.5427 31.2515 72.5427 31.2027V30.9708V30.9586V26.2965V26.2233V26.0524C72.5427 26.0036 72.5854 25.9609 72.6342 25.9609H72.7562H72.8478H74.5503C75.1239 25.9609 75.5938 26.0402 75.9721 26.205C76.3504 26.3697 76.6495 26.5772 76.8752 26.8335C77.101 27.0898 77.2597 27.3705 77.3512 27.6817C77.4427 27.9929 77.4855 28.2919 77.4855 28.5849C77.4855 28.9022 77.4366 29.2195 77.339 29.5368C77.2414 29.8541 77.0827 30.147 76.863 30.4033C76.6433 30.6657 76.3504 30.8793 75.9904 31.0379C75.6304 31.2027 75.1849 31.282 74.6601 31.282H72.8539H72.7562V31.2942Z" fill="white"/>
<path fill-rule="evenodd" clip-rule="evenodd" d="M85.5159 16.6305V19.1752V19.3643C85.5159 19.7427 85.461 20.0661 85.3573 20.3346C85.2535 20.6031 85.1193 20.8167 84.9484 20.9814C84.7836 21.1462 84.5884 21.2682 84.3809 21.3476C84.1673 21.4208 83.9538 21.4635 83.7402 21.4635C83.5205 21.4635 83.3069 21.4269 83.1055 21.3476C82.9042 21.2682 82.7333 21.1462 82.5807 20.9814C82.4282 20.8167 82.3123 20.6031 82.2207 20.3468C82.1475 20.1271 82.0987 19.8769 82.0926 19.5901V16.1607V15.9166V15.6725C82.0926 15.5993 82.0315 15.5382 81.9583 15.5382H80.8965H80.8904H80.8782C80.8355 15.5382 80.7562 15.5932 80.7562 15.6603V18.1317H80.7623V18.2964V18.6382V19.4559V19.5901C80.7745 20.0661 80.8538 20.481 80.9942 20.8472C81.1528 21.2438 81.3664 21.5794 81.6349 21.8418C81.9034 22.1042 82.2207 22.3056 82.5807 22.4399C82.9408 22.5741 83.3252 22.6412 83.7402 22.6412C84.0453 22.6412 84.3626 22.5863 84.6799 22.4826C84.9972 22.3788 85.284 22.2263 85.5403 22.031V22.3727V22.3788C85.5403 22.446 85.5952 22.4948 85.6563 22.4948H85.6624H86.718C86.7852 22.4948 86.834 22.4399 86.834 22.3788V19.1813V16.301V16.1607V15.6664V15.6542C86.834 15.6298 86.8218 15.6054 86.8035 15.5871C86.7913 15.5688 86.773 15.5566 86.7547 15.5505C86.7425 15.5444 86.7242 15.5382 86.7119 15.5382H86.7058H86.6997H85.6502C85.5769 15.5382 85.5159 15.5993 85.5159 15.6725V16.1668V16.1729V16.179V16.6305ZM69.461 16.6672V21.8662V21.8907V22.1042V22.3788C69.461 22.446 69.4061 22.5009 69.3389 22.5009H68.2467C68.1795 22.5009 68.1246 22.446 68.1246 22.3788V22.1042V21.8907V21.8662V16.6672H67.6547H66.3794H65.7875C65.7203 16.6672 65.6654 16.6122 65.6654 16.5451C65.6654 16.5329 65.6654 16.5146 65.6715 16.5024L65.94 15.7701C65.9888 15.6359 66.117 15.5382 66.2695 15.5382H66.3733H67.6486H68.5701H69.1193H70.0407H71.3161H71.7005H71.908C71.9751 15.5382 72.03 15.5932 72.03 15.6603C72.03 15.6725 72.03 15.6908 72.0239 15.703L71.7554 16.4353C71.7066 16.5695 71.5785 16.6733 71.4198 16.6733H71.3161H70.0407H69.461V16.6672ZM58.2329 16.6305V19.1752V19.3643C58.2329 19.7427 58.178 20.0661 58.0743 20.3346C57.9705 20.6031 57.8363 20.8167 57.6654 20.9814C57.5006 21.1462 57.3054 21.2682 57.0979 21.3476C56.8843 21.4208 56.6707 21.4635 56.4572 21.4635C56.2375 21.4635 56.0239 21.4269 55.8225 21.3476C55.6212 21.2682 55.4503 21.1462 55.2977 20.9814C55.1452 20.8167 55.0293 20.6031 54.9377 20.3468C54.8645 20.1271 54.8157 19.8769 54.8096 19.5901V16.1607V15.9166V15.6725C54.8096 15.5993 54.7485 15.5382 54.6753 15.5382H53.6135H53.6074H53.5952C53.5525 15.5382 53.4732 15.5932 53.4732 15.6603V18.1317H53.4793V18.2964V18.6382V19.4559V19.5901C53.4915 20.0661 53.5708 20.481 53.7112 20.8472C53.8698 21.2438 54.0834 21.5794 54.3519 21.8418C54.6204 22.1042 54.9377 22.3056 55.2977 22.4399C55.6578 22.5741 56.0422 22.6412 56.4572 22.6412C56.7623 22.6412 57.0796 22.5863 57.3969 22.4826C57.7142 22.3788 58.001 22.2263 58.2573 22.031V22.3727V22.3788C58.2573 22.446 58.3122 22.4948 58.3733 22.4948H58.3794H59.435C59.5022 22.4948 59.551 22.4399 59.551 22.3788V19.1813V16.301V16.1607V15.6664V15.6542C59.551 15.6298 59.5388 15.6054 59.5205 15.5871C59.5083 15.5688 59.49 15.5566 59.4717 15.5505C59.4595 15.5444 59.4412 15.5382 59.4289 15.5382H59.4228H59.4167H58.3672C58.2939 15.5382 58.2329 15.5993 58.2329 15.6725V16.1668V16.1729V16.179V16.6305ZM48.7562 18.809L46.4495 15.6786C46.3824 15.5932 46.2787 15.5321 46.1627 15.5321H45.5769C45.5098 15.5321 45.4549 15.5871 45.4549 15.6481V15.6542V21.7503V22.1958V22.3788C45.4549 22.446 45.5098 22.507 45.583 22.507H46.0407H46.2054H46.6631C46.7302 22.507 46.7913 22.4521 46.7913 22.3788V22.1958V21.7503V18.2476H46.8096L48.7562 20.9326L50.7028 18.2476H50.7211V21.7503V22.1958V22.3788C50.7211 22.446 50.776 22.507 50.8492 22.507H51.3069H51.4717H51.9293C51.9964 22.507 52.0575 22.4521 52.0575 22.3788V22.1958V21.7503V15.6542V15.6481C52.0575 15.581 52.0026 15.5321 51.9354 15.5321H51.3496C51.2337 15.5321 51.1299 15.5871 51.0628 15.6786L48.7562 18.809ZM112.494 19.0226C112.494 19.3643 112.433 19.6817 112.311 19.9685C112.189 20.2614 112.018 20.5116 111.804 20.7312C111.591 20.9448 111.334 21.1157 111.048 21.2377C110.761 21.3598 110.45 21.4208 110.114 21.4208C109.778 21.4208 109.467 21.3598 109.18 21.2377C108.894 21.1157 108.643 20.9448 108.43 20.7312C108.216 20.5177 108.045 20.2614 107.923 19.9685C107.801 19.6755 107.734 19.3582 107.734 19.0226C107.734 18.6809 107.795 18.3636 107.923 18.0768C108.045 17.7839 108.216 17.5337 108.43 17.314C108.643 17.1004 108.894 16.9296 109.18 16.8075C109.467 16.6855 109.778 16.6244 110.114 16.6244C110.45 16.6244 110.761 16.6855 111.048 16.8075C111.334 16.9296 111.591 17.1004 111.804 17.314C112.018 17.5276 112.189 17.7839 112.311 18.0768C112.433 18.3697 112.494 18.687 112.494 19.0226ZM113.849 19.0226C113.849 18.5222 113.751 18.0585 113.556 17.6191C113.36 17.1858 113.098 16.8075 112.762 16.4841C112.427 16.1607 112.03 15.9105 111.572 15.7213C111.115 15.5321 110.627 15.4406 110.102 15.4406C109.577 15.4406 109.089 15.5321 108.631 15.7213C108.173 15.9105 107.783 16.1607 107.447 16.4841C107.112 16.8075 106.849 17.1858 106.654 17.6191C106.459 18.0524 106.361 18.5222 106.361 19.0226C106.361 19.5291 106.459 19.9929 106.654 20.4261C106.849 20.8594 107.112 21.2377 107.447 21.5611C107.783 21.8846 108.173 22.1408 108.631 22.3239C109.089 22.507 109.577 22.5985 110.102 22.5985C110.627 22.5985 111.115 22.507 111.572 22.3239C112.03 22.1408 112.427 21.8846 112.762 21.5611C113.098 21.2377 113.366 20.8594 113.556 20.4261C113.751 19.999 113.849 19.5291 113.849 19.0226ZM126.151 15.5199C126.169 15.5138 126.181 15.5077 126.205 15.5077C126.254 15.5077 126.297 15.5382 126.315 15.5749L129.446 22.2751L129.464 22.3117C129.47 22.33 129.476 22.3422 129.476 22.3605C129.476 22.4276 129.421 22.4826 129.354 22.4826H128.238C128.152 22.4826 128.079 22.4338 128.042 22.3666V22.3605L127.993 22.2507L127.212 20.5421H124.729L123.942 22.2507L123.887 22.3666V22.3727C123.85 22.446 123.777 22.4887 123.691 22.4887H122.599C122.532 22.4887 122.477 22.4338 122.477 22.3666C122.477 22.3483 122.483 22.33 122.489 22.3117L122.52 22.2507L125.455 15.8922C125.479 15.8373 125.522 15.7945 125.571 15.7762L126.151 15.5199ZM126.7 19.4193H125.235L125.961 17.8205L126.7 19.4193ZM79.7005 15.5321H76.1856H76.0453H75.911C75.8439 15.5321 75.789 15.5871 75.789 15.6542V15.7823V15.9654V22.0493V22.208V22.3666C75.789 22.4338 75.8439 22.4887 75.911 22.4887H76.027H76.1917H76.7287H76.9606H77.0094C77.0766 22.4887 77.1315 22.4338 77.1315 22.3666V22.208V22.0493V19.4376H79.1513H79.2917H79.432C79.4991 19.4376 79.5541 19.3826 79.5541 19.3155V19.2301V18.9982V18.7419V18.5222V18.4246C79.5541 18.3575 79.4991 18.3026 79.432 18.3026H79.2917H79.1513H77.1315V16.6611H79.3344C79.3405 16.6611 79.3405 16.6611 79.3466 16.6611C79.4747 16.6611 79.5846 16.5817 79.6334 16.4719L79.9141 15.8251C79.9263 15.8006 79.9324 15.7701 79.9324 15.7396C79.9141 15.6298 79.8164 15.5321 79.7005 15.5321ZM93.9187 22.4887C93.8637 22.4887 93.8088 22.4643 93.7783 22.4215L89.6471 17.7961V21.8479V22.1653V22.3666C89.6471 22.4338 89.5922 22.4887 89.5251 22.4887H88.4328C88.3657 22.4887 88.3107 22.4338 88.3107 22.3666V22.1653V21.8479V15.6664V15.6603C88.3107 15.5932 88.3657 15.5382 88.4328 15.5382H89.2383C89.2932 15.5382 89.3481 15.5627 89.3847 15.6054L93.4793 20.1881V16.0691V15.8251V15.6481C93.4793 15.581 93.5342 15.526 93.6013 15.526H94.6875C94.7547 15.526 94.8096 15.581 94.8096 15.6481V15.8251V16.0691V22.3666C94.8096 22.4338 94.7547 22.4887 94.6875 22.4887H93.9187ZM120.75 22.4887C120.695 22.4887 120.64 22.4643 120.604 22.4215L116.472 17.7961V21.8479V22.1653V22.3666C116.472 22.4338 116.418 22.4887 116.35 22.4887H115.258C115.191 22.4887 115.136 22.4338 115.136 22.3666V22.1653V21.8479V15.6664V15.6603C115.136 15.5932 115.191 15.5382 115.258 15.5382H116.064C116.119 15.5382 116.173 15.5627 116.21 15.6054L120.305 20.1881V16.0691V15.8251V15.6481C120.305 15.581 120.36 15.526 120.427 15.526H121.513C121.58 15.526 121.635 15.581 121.635 15.6481V15.8251V16.0691V22.3666C121.635 22.4338 121.58 22.4887 121.513 22.4887H120.75ZM72.8538 16.1729C72.8538 16.1119 72.8904 16.0569 72.9454 16.0325L74.0193 15.5382C74.0377 15.5321 74.0315 15.526 74.0743 15.526C74.117 15.526 74.1963 15.581 74.1963 15.6481V21.8479V22.0859V22.3605C74.1963 22.4276 74.1414 22.4826 74.0743 22.4826H72.982C72.9148 22.4826 72.8599 22.4276 72.8599 22.3605V22.0859V21.8479V16.1729H72.8538ZM103.725 16.1729C103.725 16.1119 103.762 16.0569 103.816 16.0325L104.89 15.5382C104.909 15.5321 104.903 15.526 104.945 15.526C104.988 15.526 105.067 15.581 105.067 15.6481V21.8479V22.0859V22.3605C105.067 22.4276 105.012 22.4826 104.945 22.4826H103.853C103.786 22.4826 103.731 22.4276 103.731 22.3605V22.0859V21.8479V16.1729H103.725ZM130.324 16.6977V16.8563V18.9006V19.1386V19.4132V21.2682V22.3544V22.3605C130.324 22.4276 130.379 22.4826 130.447 22.4826H130.477H130.758H134.742H134.749C134.816 22.4826 134.871 22.4276 134.871 22.3605C134.871 22.3422 134.865 22.33 134.865 22.3117L134.486 21.4513C134.462 21.3964 134.407 21.3598 134.346 21.3598H131.661V19.4132V16.8502V16.6916V16.5329V15.6481C131.661 15.581 131.606 15.526 131.539 15.526C131.521 15.526 131.502 15.5321 131.484 15.5382L130.41 16.0325C130.355 16.0569 130.318 16.1119 130.318 16.1729V16.539V16.6977H130.324ZM61.0155 16.6977V16.8563V18.9006V19.1386V19.4132V21.2682V22.3544V22.3605C61.0155 22.4276 61.0704 22.4826 61.1376 22.4826H61.1681H61.4488H65.4335H65.4396C65.5068 22.4826 65.5617 22.4276 65.5617 22.3605C65.5617 22.3422 65.5556 22.33 65.5556 22.3117L65.1772 21.4513C65.1528 21.3964 65.0979 21.3598 65.0369 21.3598H62.3519V19.4132V16.8502V16.6916V16.5329V15.6481C62.3519 15.581 62.297 15.526 62.2299 15.526C62.2116 15.526 62.1933 15.5321 62.1749 15.5382L61.101 16.0325C61.046 16.0569 61.0094 16.1119 61.0094 16.1729V16.539V16.6977H61.0155ZM102.468 16.0447C102.205 15.9288 101.967 15.8312 101.754 15.7579C101.516 15.6725 101.29 15.6054 101.083 15.5627C100.875 15.5199 100.68 15.4833 100.491 15.4711C100.302 15.4528 100.112 15.4467 99.9171 15.4467C99.374 15.4467 98.8676 15.5382 98.4038 15.7152C97.94 15.8983 97.5373 16.1424 97.2017 16.4597C96.866 16.777 96.5975 17.1492 96.4084 17.5825C96.2253 18.0096 96.1277 18.4734 96.1216 18.9677V18.9982V19.0165V19.0348V19.0653C96.1277 19.5657 96.2192 20.0234 96.4084 20.4505C96.5975 20.8838 96.8599 21.2621 97.2017 21.5733C97.5373 21.8907 97.94 22.1347 98.4038 22.3178C98.8676 22.5009 99.374 22.5863 99.9171 22.5863C100.112 22.5863 100.308 22.5802 100.491 22.5619C100.68 22.5436 100.875 22.5131 101.083 22.4704C101.29 22.4215 101.51 22.3605 101.754 22.2751C101.967 22.2019 102.199 22.1042 102.468 21.9883C102.511 21.97 102.541 21.9273 102.541 21.8784C102.541 21.8662 102.541 21.8479 102.535 21.8357L102.181 20.8899C102.163 20.8411 102.12 20.8106 102.065 20.8106C102.047 20.8106 102.029 20.8167 102.016 20.8228H102.01C101.577 21.0424 101.193 21.195 100.857 21.2743C100.491 21.3598 100.155 21.4086 99.8378 21.4086C99.5022 21.4086 99.191 21.3476 98.9103 21.2255C98.6235 21.1035 98.3794 20.9387 98.1719 20.7251C97.9644 20.5116 97.8058 20.2614 97.6837 19.9685C97.5678 19.6878 97.5129 19.3826 97.5068 19.0531V19.0104V18.9677C97.5129 18.6382 97.5678 18.3331 97.6837 18.0524C97.7997 17.7595 97.9644 17.5093 98.1719 17.2957C98.3794 17.0821 98.6235 16.9173 98.9103 16.7953C99.1971 16.6733 99.5022 16.6122 99.8378 16.6122C100.155 16.6122 100.491 16.655 100.857 16.7465C101.193 16.8258 101.577 16.9784 102.01 17.1981H102.016C102.035 17.2042 102.047 17.2103 102.065 17.2103C102.12 17.2103 102.163 17.1797 102.181 17.1309L102.535 16.1851C102.541 16.1729 102.541 16.1607 102.541 16.1424C102.541 16.1119 102.511 16.063 102.468 16.0447ZM29.8271 17.4788V17.8571V18.1256H30.4434C30.8584 18.1256 31.1635 18.0463 31.3649 17.8937C31.5662 17.7411 31.6639 17.5276 31.6639 17.2469C31.6639 16.9967 31.5662 16.7953 31.371 16.6366C31.1757 16.478 30.8584 16.3987 30.4251 16.3987H29.8271V16.6122V17.0455V17.4788ZM29.8271 21.8846V22.1286C29.8271 22.1958 29.7722 22.2568 29.7051 22.2568H29.2535H29.0765H28.625C28.5578 22.2568 28.4968 22.2019 28.4968 22.1286V21.8846V21.5001V17.851V17.4727V17.0455V16.6122V16.0203V15.8373V15.3979C28.4968 15.3308 28.5517 15.2698 28.625 15.2698H29.1009H29.2474H30.5289C30.9865 15.2698 31.3771 15.3247 31.6944 15.4284C32.0117 15.5321 32.268 15.6725 32.4633 15.8495C32.6585 16.0264 32.805 16.2278 32.8904 16.4597C32.9758 16.6916 33.0247 16.9235 33.0247 17.1675C33.0247 17.9852 32.6585 18.5588 31.9324 18.8884L34.1536 22.0554C34.1658 22.0737 34.178 22.0981 34.178 22.1286C34.178 22.1958 34.1231 22.2568 34.0498 22.2568H32.927C32.7989 22.2568 32.689 22.1897 32.628 22.092L30.7119 19.2423H29.8271V21.5001V21.8846ZM12.686 15.2698H8.96974H8.82938H8.68903C8.62191 15.2698 8.56699 15.3247 8.56699 15.3918V15.5199V15.703V21.7869V21.9456V22.1042C8.56699 22.1714 8.62191 22.2263 8.68903 22.2263H8.80498H8.96363H9.43961H9.50063H9.73251H9.78133H12.747C12.8568 22.2263 12.9484 22.0981 12.9606 22.0188C12.9606 21.9883 12.9606 21.9517 12.9423 21.9273L12.7287 21.2926C12.686 21.1828 12.5151 21.1035 12.448 21.1035C12.3809 21.1035 12.4419 21.1035 12.4358 21.1035H9.90337V19.2911H12.1124H12.2527H12.3931C12.4602 19.2911 12.5151 19.2362 12.5151 19.1691V19.0836V18.8579V18.6016V18.3819V18.2842C12.5151 18.2171 12.4602 18.1622 12.3931 18.1622H12.2527H12.1124H9.90337V16.4109H12.3076C12.3137 16.4109 12.2527 16.4109 12.3199 16.4109C12.387 16.4109 12.5578 16.3315 12.6067 16.2217L12.8874 15.5749C12.8996 15.5505 12.9057 15.5627 12.9057 15.4894C12.9057 15.4162 12.808 15.2759 12.686 15.2698ZM40.5731 18.7724C40.5731 19.1141 40.5121 19.4315 40.39 19.7244C40.268 20.0173 40.0971 20.2675 39.8836 20.4871C39.67 20.7007 39.4137 20.8716 39.1269 20.9936C38.8401 21.1157 38.5289 21.1767 38.1932 21.1767C37.8576 21.1767 37.5464 21.1157 37.2596 20.9936C36.9728 20.8716 36.7226 20.7007 36.509 20.4871C36.2955 20.2736 36.1246 20.0173 36.0025 19.7244C35.8805 19.4315 35.8134 19.1141 35.8134 18.7724C35.8134 18.4307 35.8744 18.1134 36.0025 17.8266C36.1246 17.5337 36.2955 17.2835 36.509 17.0638C36.7226 16.8502 36.9728 16.6794 37.2596 16.5573C37.5464 16.4353 37.8576 16.3743 38.1932 16.3743C38.5289 16.3743 38.8401 16.4353 39.1269 16.5573C39.4137 16.6794 39.67 16.8502 39.8836 17.0638C40.0971 17.2774 40.268 17.5337 40.39 17.8266C40.5121 18.1134 40.5731 18.4307 40.5731 18.7724ZM41.9278 18.7724C41.9278 18.272 41.8302 17.8083 41.6349 17.3689C41.4396 16.9357 41.1772 16.5573 40.8355 16.2339C40.4999 15.9105 40.1032 15.6603 39.6456 15.4711C39.1879 15.282 38.6997 15.1904 38.1749 15.1904C37.6501 15.1904 37.162 15.282 36.7043 15.4711C36.2466 15.6603 35.8561 15.9105 35.5205 16.2339C35.1848 16.5573 34.9225 16.9357 34.7272 17.3689C34.5319 17.8022 34.4343 18.272 34.4343 18.7724C34.4343 19.2789 34.5319 19.7427 34.7272 20.1759C34.9225 20.6092 35.1848 20.9875 35.5205 21.3109C35.8561 21.6344 36.2466 21.8907 36.7043 22.0737C37.162 22.2568 37.6501 22.3483 38.1749 22.3483C38.6997 22.3483 39.1879 22.2568 39.6456 22.0737C40.1032 21.8907 40.4999 21.6344 40.8355 21.3109C41.1711 20.9875 41.4396 20.6092 41.6349 20.1759C41.8302 19.7427 41.9278 19.2789 41.9278 18.7724ZM19.6486 22.2324C19.5937 22.2324 19.5388 22.208 19.5083 22.1653L15.3771 17.5398V21.5916V21.909V22.1103C15.3771 22.1775 15.3221 22.2324 15.255 22.2324H14.1627C14.0956 22.2324 14.0407 22.1775 14.0407 22.1103V21.909V21.5916V15.4101V15.404C14.0407 15.3369 14.0956 15.282 14.1627 15.282H14.9682C15.0231 15.282 15.0781 15.3064 15.1147 15.3491L19.2093 19.9318V15.8128V15.5688V15.3918C19.2093 15.3247 19.2642 15.2698 19.3313 15.2698H20.4175C20.4846 15.2698 20.5395 15.3247 20.5395 15.3918V15.5688V15.8128V22.1103C20.5395 22.1775 20.4846 22.2324 20.4175 22.2324H19.6486ZM25.1162 16.417V21.6161V21.6405V21.854V22.1286C25.1162 22.1958 25.0613 22.2507 24.9942 22.2507H23.9019C23.8347 22.2507 23.7798 22.1958 23.7798 22.1286V21.854V21.6405V21.6161V16.417H23.3099H22.0346H21.4427C21.3755 16.417 21.3206 16.362 21.3206 16.2949C21.3206 16.2827 21.3206 16.2644 21.3267 16.2522L21.5952 15.5138C21.644 15.3796 21.7722 15.282 21.9247 15.282H22.0285H23.3038H24.2253H24.7745H25.6959H26.9713H27.3557H27.5632C27.6303 15.282 27.6852 15.3369 27.6852 15.404C27.6852 15.4162 27.6852 15.4345 27.6791 15.4467L27.4106 16.179C27.3618 16.3132 27.2337 16.417 27.075 16.417H26.9713H25.6959H25.1162ZM7.34044 15.7518C7.07805 15.6359 6.84006 15.5382 6.62648 15.465C6.3885 15.3796 6.16272 15.3125 5.95524 15.2698C5.74777 15.227 5.5525 15.1904 5.36333 15.1782C5.17416 15.1599 4.98499 15.1538 4.78972 15.1538C4.24662 15.1538 3.74014 15.2453 3.27637 15.4223C2.8126 15.6054 2.40985 15.8495 2.07423 16.1668C1.73861 16.4841 1.47011 16.8563 1.28094 17.2896C1.09788 17.7167 1.00024 18.1805 0.994141 18.6748V18.7053V18.7236V18.7419V18.7724C1.00024 19.2728 1.09178 19.7366 1.28094 20.1576C1.47011 20.5909 1.73251 20.9692 2.07423 21.2804C2.40985 21.5977 2.8126 21.8418 3.27637 22.0249C3.74014 22.208 4.24662 22.2934 4.78972 22.2934C4.98499 22.2934 5.18026 22.2873 5.36333 22.269C5.5525 22.2507 5.74777 22.2202 5.95524 22.1775C6.16272 22.1286 6.3824 22.0676 6.62648 21.9822C6.84006 21.909 7.07195 21.8113 7.34044 21.6954C7.38316 21.6771 7.41367 21.6344 7.41367 21.5855C7.41367 21.5733 7.41367 21.555 7.40757 21.5428L7.05364 20.597C7.03533 20.5482 6.99262 20.5177 6.9377 20.5177C6.91939 20.5177 6.90108 20.5238 6.88888 20.5299H6.88278C6.44952 20.7495 6.06508 20.9021 5.72946 20.9814C5.36333 21.073 5.0277 21.1157 4.71039 21.1157C4.37477 21.1157 4.06355 21.0547 3.78285 20.9326C3.49605 20.8106 3.25196 20.6458 3.04448 20.4322C2.83701 20.2186 2.67835 19.9685 2.55631 19.6755C2.44037 19.3948 2.38545 19.0897 2.37934 18.7602V18.7175V18.6748C2.38545 18.3453 2.44037 18.0402 2.55631 17.7595C2.67225 17.4665 2.83701 17.2164 3.04448 17.0028C3.25196 16.7892 3.49605 16.6244 3.78285 16.5024C4.06966 16.3804 4.37477 16.3193 4.71039 16.3193C5.0277 16.3193 5.36333 16.362 5.72946 16.4536C6.06508 16.5329 6.44342 16.6855 6.88278 16.9051H6.88888C6.90719 16.9112 6.91939 16.9173 6.9377 16.9173C6.99262 16.9173 7.03533 16.8868 7.05364 16.838L7.40757 15.8922C7.41367 15.88 7.41367 15.8678 7.41367 15.8495C7.41977 15.8189 7.38316 15.7701 7.34044 15.7518Z" fill="white"/>
<path fill-rule="evenodd" clip-rule="evenodd" d="M120.091 6.79995C119.7 6.62909 119.346 6.50704 119.029 6.43992C118.687 6.36669 118.364 6.33008 118.059 6.33008C117.687 6.33008 117.327 6.3972 116.979 6.53145C116.637 6.6657 116.332 6.85487 116.063 7.09896C115.795 7.34305 115.587 7.63595 115.423 7.97157C115.264 8.3133 115.185 8.69164 115.185 9.10659C115.185 9.50323 115.258 9.86936 115.404 10.1989C115.551 10.5345 115.752 10.8274 116.015 11.0715C116.271 11.3217 116.582 11.5109 116.936 11.6512C117.29 11.7916 117.681 11.8587 118.102 11.8587C118.407 11.8587 118.73 11.8221 119.078 11.7549C119.401 11.6878 119.755 11.5597 120.134 11.3644C120.164 11.3522 120.182 11.3217 120.182 11.2851C120.182 11.2729 120.182 11.2668 120.176 11.2546L119.914 10.5406C119.902 10.504 119.871 10.4796 119.829 10.4796C119.816 10.4796 119.804 10.4796 119.792 10.4857C119.627 10.565 119.468 10.6321 119.328 10.6871C119.163 10.7481 119.005 10.803 118.858 10.8396C118.712 10.8762 118.578 10.9067 118.456 10.9189C118.333 10.9311 118.211 10.9434 118.095 10.9434C117.827 10.9434 117.577 10.9006 117.357 10.8091C117.131 10.7176 116.936 10.5894 116.777 10.4308C116.613 10.266 116.491 10.0707 116.399 9.84495C116.308 9.61917 116.265 9.36898 116.265 9.10048C116.265 8.83199 116.308 8.5818 116.399 8.35601C116.491 8.13023 116.619 7.92886 116.777 7.7641C116.936 7.59934 117.125 7.46509 117.345 7.37356C117.565 7.28202 117.796 7.23321 118.053 7.23321C118.346 7.23321 118.632 7.27592 118.907 7.36135C119.157 7.44068 119.414 7.54442 119.688 7.67257C119.7 7.67867 119.713 7.67867 119.725 7.67867C119.761 7.67867 119.798 7.65426 119.81 7.62375L120.152 6.9281C120.158 6.91589 120.164 6.89758 120.164 6.88538C120.14 6.84266 120.115 6.81215 120.091 6.79995ZM127.804 9.11879C127.804 9.38119 127.755 9.62528 127.664 9.85106C127.572 10.0768 127.438 10.2721 127.273 10.443C127.108 10.6077 126.913 10.742 126.687 10.8335C126.462 10.925 126.224 10.9739 125.967 10.9739C125.711 10.9739 125.467 10.925 125.247 10.8335C125.022 10.742 124.832 10.6077 124.668 10.443C124.503 10.2782 124.375 10.0768 124.277 9.85106C124.179 9.62528 124.131 9.38119 124.131 9.11879C124.131 8.8564 124.179 8.61231 124.277 8.38653C124.375 8.16074 124.503 7.96547 124.668 7.79461C124.832 7.62985 125.028 7.4956 125.247 7.40407C125.473 7.31253 125.711 7.26372 125.967 7.26372C126.224 7.26372 126.468 7.31253 126.687 7.40407C126.913 7.4956 127.108 7.62985 127.273 7.79461C127.438 7.95937 127.572 8.16074 127.664 8.38653C127.755 8.61231 127.804 8.8564 127.804 9.11879ZM128.854 9.11879C128.854 8.73435 128.78 8.37432 128.628 8.0326C128.475 7.69697 128.274 7.40407 128.012 7.15388C127.749 6.90369 127.444 6.70842 127.09 6.56196C126.736 6.41551 126.358 6.34228 125.955 6.34228C125.552 6.34228 125.168 6.41551 124.82 6.56196C124.466 6.70842 124.161 6.90369 123.905 7.15388C123.649 7.40407 123.441 7.69697 123.295 8.0326C123.142 8.36822 123.069 8.72825 123.069 9.11879C123.069 9.50933 123.142 9.86936 123.295 10.205C123.447 10.5406 123.649 10.8335 123.905 11.0837C124.161 11.3339 124.466 11.5292 124.82 11.6756C125.174 11.816 125.552 11.8892 125.955 11.8892C126.358 11.8892 126.742 11.816 127.09 11.6756C127.444 11.5353 127.749 11.34 128.012 11.0837C128.274 10.8335 128.475 10.5406 128.628 10.205C128.774 9.87547 128.854 9.50933 128.854 9.11879ZM121.018 6.90979C121.018 6.86097 121.049 6.81826 121.086 6.79995L121.915 6.41551C121.928 6.40941 121.922 6.4033 121.958 6.4033C121.989 6.4033 122.05 6.44602 122.05 6.49484V11.2912V11.4803V11.6939C122.05 11.7427 122.007 11.7855 121.958 11.7855H121.11C121.061 11.7855 121.018 11.7427 121.018 11.6939V11.4926V11.3034V6.90979ZM134.187 11.7977C134.144 11.7977 134.102 11.7794 134.077 11.7488L130.88 8.16685V11.3034V11.5475V11.7C130.88 11.7488 130.837 11.7916 130.788 11.7916H129.94C129.891 11.7916 129.848 11.7488 129.848 11.7V11.5475V11.3034V6.51925V6.51314C129.848 6.45822 129.891 6.42161 129.94 6.42161H130.562C130.605 6.42161 130.648 6.43992 130.672 6.47043L133.845 10.0158V6.83046V6.64129V6.50094C133.845 6.45212 133.888 6.40941 133.937 6.40941H134.779C134.828 6.40941 134.87 6.45212 134.87 6.50094V6.64129V6.83046V11.7061C134.87 11.7611 134.828 11.7977 134.779 11.7977H134.187ZM112.311 6.40941C112.323 6.4033 112.335 6.4033 112.353 6.4033C112.39 6.4033 112.42 6.42771 112.439 6.45822L114.861 11.6451L114.874 11.6695C114.88 11.6817 114.88 11.6939 114.88 11.7061C114.88 11.7549 114.837 11.7977 114.788 11.7977H113.928C113.861 11.7977 113.806 11.7611 113.781 11.7061V11.7L113.739 11.6146L113.134 10.2904H111.212L110.602 11.6146L110.559 11.7V11.7061C110.535 11.7611 110.474 11.7977 110.413 11.7977H109.565C109.516 11.7977 109.473 11.7549 109.473 11.7061C109.473 11.6939 109.479 11.6756 109.485 11.6634L109.51 11.6146L111.78 6.69621C111.798 6.6535 111.829 6.62298 111.871 6.60468L112.311 6.40941ZM112.732 9.4239H111.597L112.158 8.18515L112.732 9.4239ZM104.335 11.7977H104.213C104.164 11.7977 104.121 11.7549 104.121 11.7061V11.4681V11.462V6.75723V6.68401V6.51314C104.121 6.46433 104.164 6.42161 104.213 6.42161H104.341H104.433H106.153C106.733 6.42161 107.209 6.50094 107.587 6.6657C107.966 6.83046 108.271 7.04404 108.497 7.30033C108.722 7.55662 108.887 7.84343 108.973 8.16074C109.064 8.47196 109.107 8.77707 109.107 9.06997C109.107 9.38729 109.058 9.71071 108.96 10.0341C108.863 10.3575 108.698 10.6504 108.478 10.9128C108.253 11.1752 107.96 11.3888 107.6 11.5536C107.234 11.7183 106.788 11.7977 106.257 11.7977H104.433H104.335ZM105.147 7.30033H106.166C106.446 7.30033 106.697 7.34305 106.928 7.42848C107.16 7.51391 107.356 7.63595 107.526 7.78851C107.691 7.94106 107.825 8.13023 107.917 8.34991C108.009 8.56959 108.051 8.80758 108.051 9.06997C108.051 9.37508 108.002 9.64358 107.905 9.86936C107.807 10.1012 107.673 10.2965 107.508 10.4491C107.343 10.6077 107.148 10.7237 106.928 10.8091C106.709 10.8884 106.477 10.9311 106.233 10.9311H105.153V7.30033H105.147ZM102.242 11.7977C102.199 11.7977 102.156 11.7794 102.132 11.7488L98.9345 8.16685V11.3034V11.5475V11.7C98.9345 11.7488 98.8918 11.7916 98.843 11.7916H97.9948C97.946 11.7916 97.9032 11.7488 97.9032 11.7V11.5475V11.3034V6.51925V6.51314C97.9032 6.45822 97.946 6.42161 97.9948 6.42161H98.6172C98.6599 6.42161 98.7026 6.43992 98.727 6.47043L101.9 10.0158V6.83046V6.64129V6.50094C101.9 6.45212 101.943 6.40941 101.992 6.40941H102.834C102.883 6.40941 102.925 6.45212 102.925 6.50094V6.64129V6.83046V11.7061C102.925 11.7611 102.883 11.7977 102.834 11.7977H102.242ZM95.743 7.26372V9.23473V9.38119C95.743 9.67409 95.7003 9.92428 95.621 10.1318C95.5417 10.3392 95.4318 10.504 95.3037 10.6321C95.1755 10.7603 95.0291 10.8579 94.8643 10.9128C94.6996 10.9739 94.5348 10.9983 94.3639 10.9983C94.1931 10.9983 94.0283 10.9678 93.8758 10.9067C93.7232 10.8457 93.5829 10.7481 93.4669 10.6199C93.351 10.4918 93.2594 10.327 93.1923 10.1318C93.1313 9.9609 93.1008 9.76563 93.0947 9.54595V6.89148V6.70231V6.51314C93.0947 6.45822 93.0459 6.40941 92.9909 6.40941H92.1671H92.1549C92.1244 6.40941 92.0634 6.45212 92.0634 6.50094V8.41093H92.0695V8.53908V8.80758V9.44221V9.54595C92.0817 9.91208 92.1366 10.2355 92.2526 10.5223C92.3746 10.8335 92.5394 11.0898 92.7469 11.2912C92.9543 11.4987 93.1984 11.6512 93.4791 11.7549C93.7598 11.8587 94.0588 11.9136 94.3761 11.9136C94.6141 11.9136 94.8582 11.8709 95.1023 11.7916C95.3464 11.7122 95.5722 11.5963 95.7675 11.4437V11.7061C95.7675 11.7549 95.8102 11.7977 95.859 11.7977H95.8651H96.6828C96.7316 11.7977 96.7743 11.7549 96.7743 11.7061V9.23473V7.00742V6.89758V6.51314V6.50094C96.7743 6.48263 96.7621 6.46433 96.7499 6.44602C96.7377 6.43382 96.7255 6.42161 96.7133 6.41551C96.7011 6.40941 96.6889 6.40941 96.6828 6.40941H96.6767H95.8651C95.8102 6.40941 95.7614 6.45822 95.7614 6.51314V6.89758V6.90369V6.90979V7.26372H95.743ZM91.3372 6.41551H88.6157H88.5058H88.4021C88.3533 6.41551 88.3105 6.45822 88.3105 6.50704V6.60468V6.74503V11.4498V11.5719V11.6939C88.3105 11.7427 88.3533 11.7855 88.4021 11.7855H88.4936H88.6218H89.0367H89.2137H89.2503C89.2991 11.7855 89.3418 11.7427 89.3418 11.6939V11.5719V11.4498V9.43H90.904H91.0138H91.1237C91.1725 9.43 91.2152 9.38729 91.2152 9.33847V9.27135V9.09438V8.89301V8.72215V8.64892C91.2152 8.6001 91.1725 8.55739 91.1237 8.55739H91.0138H90.904H89.3418V7.28813H91.0443C91.0443 7.28813 91.0504 7.28813 91.0565 7.28813C91.1542 7.28813 91.2396 7.2271 91.2762 7.14167L91.4898 6.64129C91.4959 6.62298 91.502 6.59858 91.502 6.57417C91.502 6.49484 91.4288 6.41551 91.3372 6.41551Z" fill="white"/>
</svg>
